<svg xmlns="http://www.w3.org/2000/svg" xmlns:xlink="http://www.w3.org/1999/xlink" width="500" zoomAndPan="magnify" viewBox="0 0 375 374.999991" height="500" preserveAspectRatio="xMidYMid meet" version="1.0"><defs><g/><clipPath id="b49c880bb3"><path d="M 124.234375 71 L 272.734375 71 L 272.734375 211.972656 L 124.234375 211.972656 Z M 124.234375 71 " clip-rule="nonzero"/></clipPath><clipPath id="fc3fddc992"><path d="M 187 99.542969 L 211 99.542969 L 211 127.761719 L 187 127.761719 Z M 187 99.542969 " clip-rule="nonzero"/></clipPath><clipPath id="e0cd47fef3"><path d="M 186 152.726562 L 210 152.726562 L 210 180.945312 L 186 180.945312 Z M 186 152.726562 " clip-rule="nonzero"/></clipPath></defs><rect x="-37.5" width="450" fill="#ffffff" y="-37.499999" height="449.999989" fill-opacity="1"/><rect x="-37.5" width="450" fill="#ffffff" y="-37.499999" height="449.999989" fill-opacity="1"/><g clip-path="url(#b49c880bb3)"><path fill="#444343" d="M 241.660156 83.738281 C 224.585938 83.738281 210.699219 97.628906 210.699219 114.699219 L 210.699219 136.476562 L 186.160156 136.476562 L 186.160156 122.53125 C 194.875 120.277344 201.359375 111.75 201.359375 101.570312 C 201.359375 89.667969 192.5 71.003906 181.566406 71.003906 C 170.632812 71.003906 161.769531 89.667969 161.769531 101.570312 C 161.769531 111.75 168.253906 120.277344 176.972656 122.53125 L 176.972656 167.441406 C 176.972656 179.445312 167.203125 189.214844 155.195312 189.214844 C 143.1875 189.214844 133.421875 179.445312 133.421875 167.441406 C 133.421875 155.433594 143.1875 145.664062 155.195312 145.664062 L 167.421875 145.664062 L 167.421875 136.476562 L 155.195312 136.476562 C 138.125 136.476562 124.234375 150.367188 124.234375 167.441406 C 124.234375 184.511719 138.125 198.402344 155.195312 198.402344 C 172.269531 198.402344 186.160156 184.511719 186.160156 167.441406 L 186.160156 145.664062 L 210.699219 145.664062 L 210.699219 159.871094 C 203.113281 161.589844 198.304688 168.3125 198.304688 184.832031 C 198.304688 191.285156 203.46875 211.726562 203.46875 211.726562 L 206.585938 183.449219 C 206.585938 183.449219 206.789062 182.167969 209.019531 182.167969 C 210.855469 182.167969 211.261719 183.449219 211.261719 183.449219 L 215.277344 211.726562 L 219.292969 183.449219 C 219.292969 183.449219 219.695312 182.167969 221.535156 182.167969 C 223.765625 182.167969 223.96875 183.449219 223.96875 183.449219 L 227.082031 211.726562 C 227.082031 211.726562 232.246094 191.285156 232.246094 184.832031 C 232.246094 168.335938 227.453125 161.605469 219.882812 159.875 L 219.882812 114.699219 C 219.882812 102.695312 229.652344 92.925781 241.660156 92.925781 C 253.667969 92.925781 263.4375 102.695312 263.4375 114.699219 C 263.4375 126.707031 253.667969 136.476562 241.660156 136.476562 L 229.433594 136.476562 L 229.433594 145.664062 L 241.660156 145.664062 C 258.734375 145.664062 272.621094 131.773438 272.621094 114.699219 C 272.621094 97.628906 258.734375 83.738281 241.660156 83.738281 Z M 241.660156 83.738281 " fill-opacity="1" fill-rule="nonzero"/></g><g fill="#8cc342" fill-opacity="0.4"><g transform="translate(123.174209, 252.88129)"><g><path d="M -4.765625 -42.640625 C -3.410156 -44.597656 -1.71875 -45.960938 0.3125 -46.734375 C 2.34375 -47.503906 4.269531 -47.890625 6.09375 -47.890625 C 6.988281 -47.890625 8.113281 -47.722656 9.46875 -47.390625 C 10.820312 -47.066406 12.242188 -46.460938 13.734375 -45.578125 C 15.234375 -44.691406 16.660156 -43.414062 18.015625 -41.75 C 19.378906 -40.09375 20.503906 -37.910156 21.390625 -35.203125 C 21.953125 -33.566406 22.429688 -32.140625 22.828125 -30.921875 C 23.222656 -29.710938 23.617188 -28.5 24.015625 -27.28125 C 24.410156 -26.0625 24.867188 -24.566406 25.390625 -22.796875 C 26.035156 -20.785156 26.554688 -18.679688 26.953125 -16.484375 C 27.359375 -14.285156 27.65625 -11.875 27.84375 -9.25 C 28.21875 -10.5625 28.695312 -11.867188 29.28125 -13.171875 C 29.863281 -14.484375 30.550781 -15.820312 31.34375 -17.1875 C 33.3125 -20.5 34.203125 -24.128906 34.015625 -28.078125 C 33.828125 -32.035156 32.9375 -35.835938 31.34375 -39.484375 C 30.457031 -41.492188 29.253906 -42.601562 27.734375 -42.8125 C 26.210938 -43.019531 24.914062 -42.515625 23.84375 -41.296875 L 22.578125 -42.640625 C 23.984375 -44.597656 25.703125 -45.960938 27.734375 -46.734375 C 29.765625 -47.503906 31.671875 -47.890625 33.453125 -47.890625 C 34.390625 -47.890625 35.535156 -47.722656 36.890625 -47.390625 C 38.242188 -47.066406 39.664062 -46.460938 41.15625 -45.578125 C 42.65625 -44.691406 44.082031 -43.414062 45.4375 -41.75 C 46.789062 -40.09375 47.914062 -37.910156 48.8125 -35.203125 L 52.796875 -22.796875 C 53.410156 -20.785156 53.925781 -18.691406 54.34375 -16.515625 C 54.769531 -14.335938 55.078125 -11.941406 55.265625 -9.328125 C 55.628906 -10.585938 56.101562 -11.882812 56.6875 -13.21875 C 57.28125 -14.550781 57.945312 -15.875 58.6875 -17.1875 C 60.144531 -19.613281 61.023438 -22.273438 61.328125 -25.171875 C 61.628906 -28.066406 61.414062 -30.960938 60.6875 -33.859375 C 59.96875 -36.765625 58.8125 -39.421875 57.21875 -41.828125 C 55.632812 -44.234375 53.671875 -46.140625 51.328125 -47.546875 L 72.578125 -47.546875 C 72.578125 -45.023438 72.203125 -42.367188 71.453125 -39.578125 C 70.703125 -36.796875 69.734375 -34.050781 68.546875 -31.34375 C 67.359375 -28.632812 66.097656 -26.078125 64.765625 -23.671875 C 63.429688 -21.265625 62.179688 -19.171875 61.015625 -17.390625 C 59.648438 -15.335938 58.570312 -13.1875 57.78125 -10.9375 C 56.988281 -8.695312 56.425781 -6.617188 56.09375 -4.703125 C 55.769531 -2.785156 55.609375 -1.21875 55.609375 0 L 53.78125 0 C 53.78125 -2.382812 53.476562 -4.253906 52.875 -5.609375 C 52.269531 -6.960938 51.460938 -7.976562 50.453125 -8.65625 C 49.453125 -9.332031 48.363281 -9.847656 47.1875 -10.203125 C 46.019531 -10.554688 44.863281 -10.894531 43.71875 -11.21875 C 42.570312 -11.539062 41.539062 -12.03125 40.625 -12.6875 C 39.71875 -13.34375 39.054688 -14.328125 38.640625 -15.640625 C 38.265625 -16.765625 37.898438 -17.875 37.546875 -18.96875 C 37.203125 -20.0625 36.890625 -21.125 36.609375 -22.15625 C 36.085938 -21.269531 35.582031 -20.425781 35.09375 -19.625 C 34.601562 -18.832031 34.125 -18.085938 33.65625 -17.390625 C 32.300781 -15.335938 31.222656 -13.1875 30.421875 -10.9375 C 29.628906 -8.695312 29.054688 -6.617188 28.703125 -4.703125 C 28.359375 -2.785156 28.1875 -1.21875 28.1875 0 L 26.4375 0 C 26.4375 -2.382812 26.128906 -4.253906 25.515625 -5.609375 C 24.910156 -6.960938 24.101562 -7.976562 23.09375 -8.65625 C 22.09375 -9.332031 21.007812 -9.847656 19.84375 -10.203125 C 18.675781 -10.554688 17.519531 -10.894531 16.375 -11.21875 C 15.226562 -11.539062 14.195312 -12.03125 13.28125 -12.6875 C 12.375 -13.34375 11.710938 -14.328125 11.296875 -15.640625 C 9.796875 -20.128906 8.539062 -24.40625 7.53125 -28.46875 C 6.53125 -32.539062 5.328125 -36.210938 3.921875 -39.484375 C 3.085938 -41.492188 1.910156 -42.601562 0.390625 -42.8125 C -1.128906 -43.019531 -2.453125 -42.515625 -3.578125 -41.296875 Z M -4.765625 -42.640625 "/></g></g></g><g fill="#8cc342" fill-opacity="0.4"><g transform="translate(191.05831, 252.88129)"><g><path d="M 18.859375 -47.96875 C 22.835938 -47.96875 26.273438 -46.945312 29.171875 -44.90625 C 32.066406 -42.875 33.960938 -40.203125 34.859375 -36.890625 C 35.503906 -34.503906 35.523438 -32.304688 34.921875 -30.296875 C 34.316406 -28.285156 33.253906 -26.460938 31.734375 -24.828125 C 30.210938 -23.191406 28.351562 -21.773438 26.15625 -20.578125 C 23.957031 -19.390625 21.597656 -18.394531 19.078125 -17.59375 C 20.660156 -17.414062 22.0625 -17.046875 23.28125 -16.484375 C 24.5 -15.921875 25.570312 -15.3125 26.5 -14.65625 C 27.4375 -14 28.3125 -13.4375 29.125 -12.96875 C 29.945312 -12.5 30.757812 -12.265625 31.5625 -12.265625 C 32.726562 -12.265625 33.484375 -12.640625 33.828125 -13.390625 C 34.179688 -14.140625 34.226562 -14.96875 33.96875 -15.875 C 33.71875 -16.789062 33.285156 -17.457031 32.671875 -17.875 L 33.9375 -19.078125 C 35.25 -18.003906 36.347656 -16.8125 37.234375 -15.5 C 38.117188 -14.1875 38.5625 -12.617188 38.5625 -10.796875 C 38.5625 -9.910156 38.398438 -8.835938 38.078125 -7.578125 C 37.753906 -6.316406 37.171875 -5.066406 36.328125 -3.828125 C 35.484375 -2.585938 34.253906 -1.554688 32.640625 -0.734375 C 31.023438 0.078125 28.910156 0.484375 26.296875 0.484375 C 24.097656 0.484375 22.15625 0.113281 20.46875 -0.625 C 18.789062 -1.375 17.273438 -2.25 15.921875 -3.25 C 14.566406 -4.257812 13.300781 -5.140625 12.125 -5.890625 C 10.957031 -6.640625 9.769531 -7.015625 8.5625 -7.015625 C 7.195312 -7.015625 6.117188 -6.660156 5.328125 -5.953125 C 4.535156 -5.253906 3.972656 -4.367188 3.640625 -3.296875 C 3.316406 -2.222656 3.15625 -1.125 3.15625 0 L 1.265625 0 C 1.265625 -5.5625 2.300781 -9.769531 4.375 -12.625 C 6.457031 -15.476562 9.367188 -17.273438 13.109375 -18.015625 C 16.429688 -18.671875 18.945312 -19.78125 20.65625 -21.34375 C 22.363281 -22.914062 23.351562 -24.679688 23.625 -26.640625 C 23.90625 -28.609375 23.601562 -30.550781 22.71875 -32.46875 C 21.832031 -34.382812 20.441406 -36.054688 18.546875 -37.484375 C 16.648438 -38.910156 14.394531 -39.8125 11.78125 -40.1875 C 9.632812 -40.507812 7.925781 -40.316406 6.65625 -39.609375 C 5.394531 -38.910156 4.53125 -37.921875 4.0625 -36.640625 C 3.59375 -35.359375 3.507812 -33.929688 3.8125 -32.359375 C 4.125 -30.796875 4.769531 -29.289062 5.75 -27.84375 L 4.203125 -26.921875 C 2.617188 -29.117188 1.734375 -31.445312 1.546875 -33.90625 C 1.359375 -36.363281 1.882812 -38.65625 3.125 -40.78125 C 4.363281 -42.90625 6.300781 -44.632812 8.9375 -45.96875 C 11.582031 -47.300781 14.890625 -47.96875 18.859375 -47.96875 Z M 18.859375 -47.96875 "/></g></g></g><g fill="#8cc342" fill-opacity="0.4"><g transform="translate(224.930072, 252.88129)"><g><path d="M 20.75 -37.65625 C 21.269531 -36.0625 21.65625 -34.832031 21.90625 -33.96875 C 22.164062 -33.101562 22.378906 -32.390625 22.546875 -31.828125 C 22.710938 -31.273438 22.898438 -30.632812 23.109375 -29.90625 C 23.316406 -29.1875 23.609375 -28.125 23.984375 -26.71875 L 24.328125 -25.25 C 24.378906 -25.476562 24.4375 -25.71875 24.5 -25.96875 C 24.570312 -26.226562 24.632812 -26.476562 24.6875 -26.71875 C 25.0625 -28.125 25.351562 -29.1875 25.5625 -29.90625 C 25.769531 -30.632812 25.96875 -31.273438 26.15625 -31.828125 C 26.34375 -32.390625 26.5625 -33.101562 26.8125 -33.96875 C 27.070312 -34.832031 27.4375 -36.0625 27.90625 -37.65625 C 28.84375 -40.695312 30.101562 -42.90625 31.6875 -44.28125 C 33.28125 -45.664062 35.222656 -46.554688 37.515625 -46.953125 C 39.804688 -47.347656 42.398438 -47.546875 45.296875 -47.546875 L 47.125 -47.546875 L 47.125 0 L 31.765625 0 L 31.765625 -1.328125 C 31.765625 -3.804688 31.984375 -5.828125 32.421875 -7.390625 C 32.867188 -8.960938 33.453125 -10.285156 34.171875 -11.359375 C 34.898438 -12.429688 35.71875 -13.457031 36.625 -14.4375 C 37.539062 -15.425781 38.457031 -16.5625 39.375 -17.84375 C 40.289062 -19.132812 41.15625 -20.769531 41.96875 -22.75 C 42.789062 -24.738281 43.476562 -27.253906 44.03125 -30.296875 C 44.59375 -33.335938 44.96875 -37.125 45.15625 -41.65625 C 44.832031 -40.582031 44.550781 -39.660156 44.3125 -38.890625 C 44.082031 -38.117188 43.835938 -37.34375 43.578125 -36.5625 C 43.328125 -35.789062 43.046875 -34.867188 42.734375 -33.796875 C 42.429688 -32.722656 42.023438 -31.34375 41.515625 -29.65625 C 40.953125 -27.738281 40.15625 -26.1875 39.125 -25 C 38.101562 -23.8125 36.984375 -22.84375 35.765625 -22.09375 C 34.546875 -21.34375 33.316406 -20.648438 32.078125 -20.015625 C 30.835938 -19.390625 29.703125 -18.675781 28.671875 -17.875 C 27.648438 -17.082031 26.820312 -16.078125 26.1875 -14.859375 C 25.5625 -13.648438 25.25 -12.0625 25.25 -10.09375 L 23.484375 -10.09375 C 23.484375 -12.0625 23.164062 -13.648438 22.53125 -14.859375 C 21.90625 -16.078125 21.078125 -17.082031 20.046875 -17.875 C 19.023438 -18.675781 17.894531 -19.390625 16.65625 -20.015625 C 15.414062 -20.648438 14.1875 -21.34375 12.96875 -22.09375 C 11.757812 -22.84375 10.648438 -23.8125 9.640625 -25 C 8.640625 -26.1875 7.832031 -27.738281 7.21875 -29.65625 C 6.707031 -31.382812 6.285156 -32.785156 5.953125 -33.859375 C 5.628906 -34.941406 5.335938 -35.867188 5.078125 -36.640625 C 4.828125 -37.410156 4.582031 -38.191406 4.34375 -38.984375 C 4.113281 -39.785156 3.8125 -40.742188 3.4375 -41.859375 C 3.625 -37.285156 4 -33.46875 4.5625 -30.40625 C 5.125 -27.34375 5.820312 -24.816406 6.65625 -22.828125 C 7.5 -20.835938 8.375 -19.195312 9.28125 -17.90625 C 10.195312 -16.625 11.109375 -15.476562 12.015625 -14.46875 C 12.929688 -13.46875 13.765625 -12.429688 14.515625 -11.359375 C 15.265625 -10.285156 15.859375 -8.960938 16.296875 -7.390625 C 16.742188 -5.828125 16.96875 -3.804688 16.96875 -1.328125 L 16.96875 0 L 1.609375 0 L 1.609375 -47.546875 C 4.046875 -47.546875 6.28125 -47.472656 8.3125 -47.328125 C 10.34375 -47.191406 12.164062 -46.832031 13.78125 -46.25 C 15.394531 -45.664062 16.785156 -44.691406 17.953125 -43.328125 C 19.117188 -41.972656 20.050781 -40.082031 20.75 -37.65625 Z M 20.75 -37.65625 "/></g></g></g><g fill="#8cc342" fill-opacity="1"><g transform="translate(123.174209, 252.88129)"><g><path d="M -4.765625 -42.640625 C -3.410156 -44.597656 -1.71875 -45.960938 0.3125 -46.734375 C 2.34375 -47.503906 4.269531 -47.890625 6.09375 -47.890625 C 6.988281 -47.890625 8.113281 -47.722656 9.46875 -47.390625 C 10.820312 -47.066406 12.242188 -46.460938 13.734375 -45.578125 C 15.234375 -44.691406 16.660156 -43.414062 18.015625 -41.75 C 19.378906 -40.09375 20.503906 -37.910156 21.390625 -35.203125 C 21.953125 -33.566406 22.429688 -32.140625 22.828125 -30.921875 C 23.222656 -29.710938 23.617188 -28.5 24.015625 -27.28125 C 24.410156 -26.0625 24.867188 -24.566406 25.390625 -22.796875 C 26.035156 -20.785156 26.554688 -18.679688 26.953125 -16.484375 C 27.359375 -14.285156 27.65625 -11.875 27.84375 -9.25 C 28.21875 -10.5625 28.695312 -11.867188 29.28125 -13.171875 C 29.863281 -14.484375 30.550781 -15.820312 31.34375 -17.1875 C 33.3125 -20.5 34.203125 -24.128906 34.015625 -28.078125 C 33.828125 -32.035156 32.9375 -35.835938 31.34375 -39.484375 C 30.457031 -41.492188 29.253906 -42.601562 27.734375 -42.8125 C 26.210938 -43.019531 24.914062 -42.515625 23.84375 -41.296875 L 22.578125 -42.640625 C 23.984375 -44.597656 25.703125 -45.960938 27.734375 -46.734375 C 29.765625 -47.503906 31.671875 -47.890625 33.453125 -47.890625 C 34.390625 -47.890625 35.535156 -47.722656 36.890625 -47.390625 C 38.242188 -47.066406 39.664062 -46.460938 41.15625 -45.578125 C 42.65625 -44.691406 44.082031 -43.414062 45.4375 -41.75 C 46.789062 -40.09375 47.914062 -37.910156 48.8125 -35.203125 L 52.796875 -22.796875 C 53.410156 -20.785156 53.925781 -18.691406 54.34375 -16.515625 C 54.769531 -14.335938 55.078125 -11.941406 55.265625 -9.328125 C 55.628906 -10.585938 56.101562 -11.882812 56.6875 -13.21875 C 57.28125 -14.550781 57.945312 -15.875 58.6875 -17.1875 C 60.144531 -19.613281 61.023438 -22.273438 61.328125 -25.171875 C 61.628906 -28.066406 61.414062 -30.960938 60.6875 -33.859375 C 59.96875 -36.765625 58.8125 -39.421875 57.21875 -41.828125 C 55.632812 -44.234375 53.671875 -46.140625 51.328125 -47.546875 L 72.578125 -47.546875 C 72.578125 -45.023438 72.203125 -42.367188 71.453125 -39.578125 C 70.703125 -36.796875 69.734375 -34.050781 68.546875 -31.34375 C 67.359375 -28.632812 66.097656 -26.078125 64.765625 -23.671875 C 63.429688 -21.265625 62.179688 -19.171875 61.015625 -17.390625 C 59.648438 -15.335938 58.570312 -13.1875 57.78125 -10.9375 C 56.988281 -8.695312 56.425781 -6.617188 56.09375 -4.703125 C 55.769531 -2.785156 55.609375 -1.21875 55.609375 0 L 53.78125 0 C 53.78125 -2.382812 53.476562 -4.253906 52.875 -5.609375 C 52.269531 -6.960938 51.460938 -7.976562 50.453125 -8.65625 C 49.453125 -9.332031 48.363281 -9.847656 47.1875 -10.203125 C 46.019531 -10.554688 44.863281 -10.894531 43.71875 -11.21875 C 42.570312 -11.539062 41.539062 -12.03125 40.625 -12.6875 C 39.71875 -13.34375 39.054688 -14.328125 38.640625 -15.640625 C 38.265625 -16.765625 37.898438 -17.875 37.546875 -18.96875 C 37.203125 -20.0625 36.890625 -21.125 36.609375 -22.15625 C 36.085938 -21.269531 35.582031 -20.425781 35.09375 -19.625 C 34.601562 -18.832031 34.125 -18.085938 33.65625 -17.390625 C 32.300781 -15.335938 31.222656 -13.1875 30.421875 -10.9375 C 29.628906 -8.695312 29.054688 -6.617188 28.703125 -4.703125 C 28.359375 -2.785156 28.1875 -1.21875 28.1875 0 L 26.4375 0 C 26.4375 -2.382812 26.128906 -4.253906 25.515625 -5.609375 C 24.910156 -6.960938 24.101562 -7.976562 23.09375 -8.65625 C 22.09375 -9.332031 21.007812 -9.847656 19.84375 -10.203125 C 18.675781 -10.554688 17.519531 -10.894531 16.375 -11.21875 C 15.226562 -11.539062 14.195312 -12.03125 13.28125 -12.6875 C 12.375 -13.34375 11.710938 -14.328125 11.296875 -15.640625 C 9.796875 -20.128906 8.539062 -24.40625 7.53125 -28.46875 C 6.53125 -32.539062 5.328125 -36.210938 3.921875 -39.484375 C 3.085938 -41.492188 1.910156 -42.601562 0.390625 -42.8125 C -1.128906 -43.019531 -2.453125 -42.515625 -3.578125 -41.296875 Z M -4.765625 -42.640625 "/></g></g></g><g fill="#8cc342" fill-opacity="1"><g transform="translate(191.05831, 252.88129)"><g><path d="M 18.859375 -47.96875 C 22.835938 -47.96875 26.273438 -46.945312 29.171875 -44.90625 C 32.066406 -42.875 33.960938 -40.203125 34.859375 -36.890625 C 35.503906 -34.503906 35.523438 -32.304688 34.921875 -30.296875 C 34.316406 -28.285156 33.253906 -26.460938 31.734375 -24.828125 C 30.210938 -23.191406 28.351562 -21.773438 26.15625 -20.578125 C 23.957031 -19.390625 21.597656 -18.394531 19.078125 -17.59375 C 20.660156 -17.414062 22.0625 -17.046875 23.28125 -16.484375 C 24.5 -15.921875 25.570312 -15.3125 26.5 -14.65625 C 27.4375 -14 28.3125 -13.4375 29.125 -12.96875 C 29.945312 -12.5 30.757812 -12.265625 31.5625 -12.265625 C 32.726562 -12.265625 33.484375 -12.640625 33.828125 -13.390625 C 34.179688 -14.140625 34.226562 -14.96875 33.96875 -15.875 C 33.71875 -16.789062 33.285156 -17.457031 32.671875 -17.875 L 33.9375 -19.078125 C 35.25 -18.003906 36.347656 -16.8125 37.234375 -15.5 C 38.117188 -14.1875 38.5625 -12.617188 38.5625 -10.796875 C 38.5625 -9.910156 38.398438 -8.835938 38.078125 -7.578125 C 37.753906 -6.316406 37.171875 -5.066406 36.328125 -3.828125 C 35.484375 -2.585938 34.253906 -1.554688 32.640625 -0.734375 C 31.023438 0.078125 28.910156 0.484375 26.296875 0.484375 C 24.097656 0.484375 22.15625 0.113281 20.46875 -0.625 C 18.789062 -1.375 17.273438 -2.25 15.921875 -3.25 C 14.566406 -4.257812 13.300781 -5.140625 12.125 -5.890625 C 10.957031 -6.640625 9.769531 -7.015625 8.5625 -7.015625 C 7.195312 -7.015625 6.117188 -6.660156 5.328125 -5.953125 C 4.535156 -5.253906 3.972656 -4.367188 3.640625 -3.296875 C 3.316406 -2.222656 3.15625 -1.125 3.15625 0 L 1.265625 0 C 1.265625 -5.5625 2.300781 -9.769531 4.375 -12.625 C 6.457031 -15.476562 9.367188 -17.273438 13.109375 -18.015625 C 16.429688 -18.671875 18.945312 -19.78125 20.65625 -21.34375 C 22.363281 -22.914062 23.351562 -24.679688 23.625 -26.640625 C 23.90625 -28.609375 23.601562 -30.550781 22.71875 -32.46875 C 21.832031 -34.382812 20.441406 -36.054688 18.546875 -37.484375 C 16.648438 -38.910156 14.394531 -39.8125 11.78125 -40.1875 C 9.632812 -40.507812 7.925781 -40.316406 6.65625 -39.609375 C 5.394531 -38.910156 4.53125 -37.921875 4.0625 -36.640625 C 3.59375 -35.359375 3.507812 -33.929688 3.8125 -32.359375 C 4.125 -30.796875 4.769531 -29.289062 5.75 -27.84375 L 4.203125 -26.921875 C 2.617188 -29.117188 1.734375 -31.445312 1.546875 -33.90625 C 1.359375 -36.363281 1.882812 -38.65625 3.125 -40.78125 C 4.363281 -42.90625 6.300781 -44.632812 8.9375 -45.96875 C 11.582031 -47.300781 14.890625 -47.96875 18.859375 -47.96875 Z M 18.859375 -47.96875 "/></g></g></g><g fill="#8cc342" fill-opacity="1"><g transform="translate(224.930072, 252.88129)"><g><path d="M 20.75 -37.65625 C 21.269531 -36.0625 21.65625 -34.832031 21.90625 -33.96875 C 22.164062 -33.101562 22.378906 -32.390625 22.546875 -31.828125 C 22.710938 -31.273438 22.898438 -30.632812 23.109375 -29.90625 C 23.316406 -29.1875 23.609375 -28.125 23.984375 -26.71875 L 24.328125 -25.25 C 24.378906 -25.476562 24.4375 -25.71875 24.5 -25.96875 C 24.570312 -26.226562 24.632812 -26.476562 24.6875 -26.71875 C 25.0625 -28.125 25.351562 -29.1875 25.5625 -29.90625 C 25.769531 -30.632812 25.96875 -31.273438 26.15625 -31.828125 C 26.34375 -32.390625 26.5625 -33.101562 26.8125 -33.96875 C 27.070312 -34.832031 27.4375 -36.0625 27.90625 -37.65625 C 28.84375 -40.695312 30.101562 -42.90625 31.6875 -44.28125 C 33.28125 -45.664062 35.222656 -46.554688 37.515625 -46.953125 C 39.804688 -47.347656 42.398438 -47.546875 45.296875 -47.546875 L 47.125 -47.546875 L 47.125 0 L 31.765625 0 L 31.765625 -1.328125 C 31.765625 -3.804688 31.984375 -5.828125 32.421875 -7.390625 C 32.867188 -8.960938 33.453125 -10.285156 34.171875 -11.359375 C 34.898438 -12.429688 35.71875 -13.457031 36.625 -14.4375 C 37.539062 -15.425781 38.457031 -16.5625 39.375 -17.84375 C 40.289062 -19.132812 41.15625 -20.769531 41.96875 -22.75 C 42.789062 -24.738281 43.476562 -27.253906 44.03125 -30.296875 C 44.59375 -33.335938 44.96875 -37.125 45.15625 -41.65625 C 44.832031 -40.582031 44.550781 -39.660156 44.3125 -38.890625 C 44.082031 -38.117188 43.835938 -37.34375 43.578125 -36.5625 C 43.328125 -35.789062 43.046875 -34.867188 42.734375 -33.796875 C 42.429688 -32.722656 42.023438 -31.34375 41.515625 -29.65625 C 40.953125 -27.738281 40.15625 -26.1875 39.125 -25 C 38.101562 -23.8125 36.984375 -22.84375 35.765625 -22.09375 C 34.546875 -21.34375 33.316406 -20.648438 32.078125 -20.015625 C 30.835938 -19.390625 29.703125 -18.675781 28.671875 -17.875 C 27.648438 -17.082031 26.820312 -16.078125 26.1875 -14.859375 C 25.5625 -13.648438 25.25 -12.0625 25.25 -10.09375 L 23.484375 -10.09375 C 23.484375 -12.0625 23.164062 -13.648438 22.53125 -14.859375 C 21.90625 -16.078125 21.078125 -17.082031 20.046875 -17.875 C 19.023438 -18.675781 17.894531 -19.390625 16.65625 -20.015625 C 15.414062 -20.648438 14.1875 -21.34375 12.96875 -22.09375 C 11.757812 -22.84375 10.648438 -23.8125 9.640625 -25 C 8.640625 -26.1875 7.832031 -27.738281 7.21875 -29.65625 C 6.707031 -31.382812 6.285156 -32.785156 5.953125 -33.859375 C 5.628906 -34.941406 5.335938 -35.867188 5.078125 -36.640625 C 4.828125 -37.410156 4.582031 -38.191406 4.34375 -38.984375 C 4.113281 -39.785156 3.8125 -40.742188 3.4375 -41.859375 C 3.625 -37.285156 4 -33.46875 4.5625 -30.40625 C 5.125 -27.34375 5.820312 -24.816406 6.65625 -22.828125 C 7.5 -20.835938 8.375 -19.195312 9.28125 -17.90625 C 10.195312 -16.625 11.109375 -15.476562 12.015625 -14.46875 C 12.929688 -13.46875 13.765625 -12.429688 14.515625 -11.359375 C 15.265625 -10.285156 15.859375 -8.960938 16.296875 -7.390625 C 16.742188 -5.828125 16.96875 -3.804688 16.96875 -1.328125 L 16.96875 0 L 1.609375 0 L 1.609375 -47.546875 C 4.046875 -47.546875 6.28125 -47.472656 8.3125 -47.328125 C 10.34375 -47.191406 12.164062 -46.832031 13.78125 -46.25 C 15.394531 -45.664062 16.785156 -44.691406 17.953125 -43.328125 C 19.117188 -41.972656 20.050781 -40.082031 20.75 -37.65625 Z M 20.75 -37.65625 "/></g></g></g><g fill="#393536" fill-opacity="1"><g transform="translate(125.876469, 287.768993)"><g><path d="M 5.8125 0.03125 C 5.6875 0.03125 5.59375 -0.0078125 5.53125 -0.09375 C 5.46875 -0.1875 5.410156 -0.328125 5.359375 -0.515625 C 5.296875 -0.660156 5.175781 -1.15625 5 -2 C 4.925781 -2.28125 4.820312 -2.703125 4.6875 -3.265625 C 4.550781 -3.828125 4.445312 -4.195312 4.375 -4.375 C 4.21875 -4.757812 4.035156 -5.316406 3.828125 -6.046875 C 3.617188 -6.785156 3.5 -7.226562 3.46875 -7.375 C 3.320312 -7.695312 2.921875 -9.09375 2.265625 -11.5625 C 2.160156 -11.894531 2.0625 -12.222656 1.96875 -12.546875 C 1.882812 -12.867188 1.8125 -13.148438 1.75 -13.390625 L 1.25 -15.234375 L 0.671875 -17.34375 C 0.609375 -17.570312 0.578125 -17.75 0.578125 -17.875 C 0.578125 -17.925781 0.59375 -17.957031 0.625 -17.96875 C 0.65625 -17.988281 0.695312 -18 0.75 -18 L 1.5625 -18 C 1.851562 -18 2.0625 -18.007812 2.1875 -18.03125 L 2.46875 -18.078125 C 2.644531 -18.128906 2.765625 -18.101562 2.828125 -18 C 2.890625 -17.894531 2.953125 -17.675781 3.015625 -17.34375 C 3.054688 -17.207031 3.234375 -16.597656 3.546875 -15.515625 C 3.859375 -14.429688 4.222656 -13.363281 4.640625 -12.3125 C 4.960938 -11.289062 5.265625 -10.441406 5.546875 -9.765625 L 5.984375 -8.625 L 6.09375 -8.953125 L 6.359375 -9.6875 C 6.472656 -9.976562 6.679688 -10.691406 6.984375 -11.828125 L 7.15625 -12.5 C 7.226562 -12.757812 7.382812 -13.253906 7.625 -13.984375 C 7.875 -14.710938 8.066406 -15.28125 8.203125 -15.6875 C 8.285156 -15.875 8.390625 -16.160156 8.515625 -16.546875 C 8.960938 -17.691406 9.289062 -18.265625 9.5 -18.265625 C 9.625 -18.265625 9.703125 -18.242188 9.734375 -18.203125 C 9.773438 -18.171875 9.800781 -18.109375 9.8125 -18.015625 C 9.832031 -17.929688 9.851562 -17.863281 9.875 -17.8125 C 9.90625 -17.675781 9.945312 -17.515625 10 -17.328125 C 10.050781 -17.148438 10.09375 -16.945312 10.125 -16.71875 C 10.820312 -14.914062 11.238281 -13.84375 11.375 -13.5 L 12.1875 -11.75 L 12.65625 -10.703125 C 12.6875 -10.804688 12.722656 -10.882812 12.765625 -10.9375 L 13.03125 -11.59375 C 13.0625 -11.695312 13.128906 -12.050781 13.234375 -12.65625 C 13.359375 -13.425781 13.460938 -13.972656 13.546875 -14.296875 C 13.628906 -14.628906 13.785156 -15.109375 14.015625 -15.734375 C 14.273438 -16.492188 14.421875 -17.003906 14.453125 -17.265625 C 14.523438 -17.878906 14.734375 -18.1875 15.078125 -18.1875 C 15.359375 -18.25 15.671875 -18.28125 16.015625 -18.28125 C 16.191406 -18.28125 16.304688 -18.273438 16.359375 -18.265625 C 16.566406 -18.265625 16.671875 -18.1875 16.671875 -18.03125 L 16.625 -17.71875 L 16.390625 -16.984375 C 16.265625 -16.515625 16.160156 -16.160156 16.078125 -15.921875 C 15.984375 -15.609375 15.875 -15.234375 15.75 -14.796875 C 15.632812 -14.359375 15.515625 -13.914062 15.390625 -13.46875 C 15.128906 -12.4375 14.90625 -11.601562 14.71875 -10.96875 C 14.613281 -10.550781 14.5 -9.9375 14.375 -9.125 C 14.257812 -8.320312 14.203125 -7.847656 14.203125 -7.703125 C 14.203125 -7.285156 14.078125 -6.785156 13.828125 -6.203125 C 13.742188 -5.941406 13.613281 -5.367188 13.4375 -4.484375 C 13.269531 -3.597656 13.160156 -3 13.109375 -2.6875 C 12.929688 -1.539062 12.804688 -0.90625 12.734375 -0.78125 C 12.710938 -0.675781 12.6875 -0.550781 12.65625 -0.40625 C 12.632812 -0.257812 12.609375 -0.148438 12.578125 -0.078125 C 12.554688 -0.00390625 12.519531 0.03125 12.46875 0.03125 C 12.332031 0.03125 12.234375 -0.00390625 12.171875 -0.078125 C 12.109375 -0.148438 12.023438 -0.296875 11.921875 -0.515625 C 11.785156 -0.691406 11.429688 -1.535156 10.859375 -3.046875 C 10.734375 -3.359375 10.367188 -4.375 9.765625 -6.09375 C 9.660156 -6.457031 9.488281 -6.953125 9.25 -7.578125 L 8.875 -8.546875 L 8.515625 -7.8125 C 8.335938 -7.425781 8.078125 -6.785156 7.734375 -5.890625 L 7.53125 -5.359375 C 7.320312 -4.753906 6.988281 -3.515625 6.53125 -1.640625 L 6.359375 -0.890625 C 6.304688 -0.679688 6.222656 -0.472656 6.109375 -0.265625 C 5.992188 -0.0664062 5.894531 0.03125 5.8125 0.03125 Z M 5.8125 0.03125 "/></g></g></g><g fill="#393536" fill-opacity="1"><g transform="translate(141.400505, 287.768993)"><g><path d="M 16.046875 -18.421875 C 16.222656 -18.367188 16.3125 -18.28125 16.3125 -18.15625 L 16.25 -17.953125 C 16.238281 -17.828125 16.210938 -17.59375 16.171875 -17.25 C 16.140625 -16.914062 16.085938 -16.398438 16.015625 -15.703125 C 15.960938 -15.179688 15.921875 -13.992188 15.890625 -12.140625 C 15.859375 -10.296875 15.84375 -8.851562 15.84375 -7.8125 C 15.84375 -7.082031 15.804688 -5.816406 15.734375 -4.015625 L 15.6875 -2.296875 L 15.65625 -1.25 C 15.65625 -0.988281 15.671875 -0.738281 15.703125 -0.5 L 15.734375 -0.34375 C 15.734375 -0.238281 15.691406 -0.179688 15.609375 -0.171875 C 15.535156 -0.160156 15.488281 -0.15625 15.46875 -0.15625 C 15.300781 -0.125 14.988281 -0.109375 14.53125 -0.109375 C 14.394531 -0.109375 14.328125 -0.175781 14.328125 -0.3125 L 14.359375 -4.171875 C 14.335938 -4.441406 14.332031 -4.726562 14.34375 -5.03125 C 14.351562 -5.34375 14.359375 -5.617188 14.359375 -5.859375 L 14.359375 -8.875 L 12.234375 -8.828125 C 11.492188 -8.804688 10.488281 -8.796875 9.21875 -8.796875 L 6.765625 -8.796875 C 6.109375 -8.796875 5.597656 -8.804688 5.234375 -8.828125 C 5.234375 -8.535156 5.222656 -8.3125 5.203125 -8.15625 C 5.171875 -7.59375 5.15625 -7.0625 5.15625 -6.5625 L 5.125 -3.75 C 5.125 -2.375 5.171875 -1.472656 5.265625 -1.046875 C 5.296875 -0.835938 5.3125 -0.707031 5.3125 -0.65625 C 5.3125 -0.40625 5.242188 -0.25 5.109375 -0.1875 C 4.984375 -0.132812 4.847656 -0.109375 4.703125 -0.109375 C 4.554688 -0.117188 4.457031 -0.125 4.40625 -0.125 C 3.789062 -0.164062 3.09375 -0.140625 2.3125 -0.046875 C 2.019531 -0.015625 1.84375 -0.0820312 1.78125 -0.25 C 1.71875 -0.425781 1.691406 -0.671875 1.703125 -0.984375 C 1.710938 -1.296875 1.71875 -1.53125 1.71875 -1.6875 L 1.671875 -10.703125 L 1.71875 -17.453125 C 1.71875 -17.796875 1.753906 -18.015625 1.828125 -18.109375 C 1.910156 -18.210938 2.039062 -18.265625 2.21875 -18.265625 L 2.78125 -18.234375 C 2.875 -18.234375 3.078125 -18.25 3.390625 -18.28125 C 3.472656 -18.300781 3.617188 -18.3125 3.828125 -18.3125 L 4.5 -18.28125 C 4.644531 -18.269531 4.835938 -18.265625 5.078125 -18.265625 C 5.265625 -18.265625 5.378906 -18.207031 5.421875 -18.09375 C 5.472656 -17.976562 5.492188 -17.859375 5.484375 -17.734375 C 5.472656 -17.617188 5.46875 -17.535156 5.46875 -17.484375 C 5.46875 -16.679688 5.429688 -15.644531 5.359375 -14.375 L 5.265625 -11.796875 L 5.1875 -10.265625 L 6.75 -10.203125 L 7.703125 -10.1875 C 8.535156 -10.144531 9.117188 -10.125 9.453125 -10.125 C 10.804688 -10.125 11.835938 -10.132812 12.546875 -10.15625 C 13.398438 -10.15625 14.054688 -10.164062 14.515625 -10.1875 L 14.515625 -10.96875 L 14.484375 -12.390625 C 14.484375 -13.054688 14.519531 -14.414062 14.59375 -16.46875 L 14.640625 -18.28125 C 14.660156 -18.4375 14.753906 -18.515625 14.921875 -18.515625 L 15.21875 -18.5 C 15.28125 -18.476562 15.410156 -18.46875 15.609375 -18.46875 C 15.816406 -18.46875 15.960938 -18.453125 16.046875 -18.421875 Z M 14.328125 -0.359375 L 14.328125 -0.3125 Z M 14.328125 -0.359375 "/></g></g></g><g fill="#393536" fill-opacity="1"><g transform="translate(157.549672, 287.768993)"><g><path d="M 0.28125 0 C 0.125 0 0.0820312 -0.113281 0.15625 -0.34375 C 0.15625 -0.394531 0.164062 -0.4375 0.1875 -0.46875 C 0.1875 -0.5 0.191406 -0.539062 0.203125 -0.59375 C 0.222656 -0.644531 0.25 -0.722656 0.28125 -0.828125 L 0.515625 -1.796875 C 0.554688 -1.898438 0.617188 -2.082031 0.703125 -2.34375 C 0.785156 -2.601562 0.847656 -2.847656 0.890625 -3.078125 C 0.972656 -3.492188 1.132812 -4.125 1.375 -4.96875 L 1.59375 -5.703125 C 1.914062 -6.773438 2.125 -7.53125 2.21875 -7.96875 L 2.578125 -9.34375 C 2.753906 -9.914062 2.859375 -10.28125 2.890625 -10.4375 C 3.015625 -10.957031 3.1875 -11.609375 3.40625 -12.390625 L 3.59375 -13.125 L 3.75 -13.671875 C 3.925781 -14.265625 4.070312 -14.691406 4.1875 -14.953125 C 4.226562 -15.054688 4.351562 -15.414062 4.5625 -16.03125 C 4.78125 -16.644531 4.925781 -17.132812 5 -17.5 C 5.125 -17.914062 5.25 -18.226562 5.375 -18.4375 C 5.507812 -18.644531 5.6875 -18.75 5.90625 -18.75 C 6 -18.75 6.085938 -18.671875 6.171875 -18.515625 C 6.253906 -18.359375 6.335938 -18.164062 6.421875 -17.9375 C 6.515625 -17.71875 6.578125 -17.554688 6.609375 -17.453125 C 6.753906 -17.117188 7 -16.296875 7.34375 -14.984375 L 7.546875 -14.25 C 7.566406 -14.113281 7.851562 -13.257812 8.40625 -11.6875 L 8.90625 -10.265625 L 9.375 -9.03125 C 9.863281 -7.664062 10.175781 -6.832031 10.3125 -6.53125 C 10.914062 -4.695312 11.269531 -3.585938 11.375 -3.203125 C 11.5 -2.753906 11.695312 -2.191406 11.96875 -1.515625 C 12.238281 -0.835938 12.390625 -0.453125 12.421875 -0.359375 C 12.472656 -0.242188 12.5 -0.160156 12.5 -0.109375 C 12.5 -0.0351562 12.40625 0 12.21875 0 L 10.75 0 C 10.6875 0 10.628906 -0.0078125 10.578125 -0.03125 C 10.535156 -0.0625 10.5 -0.128906 10.46875 -0.234375 C 10.394531 -0.421875 10.300781 -0.734375 10.1875 -1.171875 C 10.03125 -1.609375 9.925781 -2 9.875 -2.34375 C 9.820312 -2.601562 9.738281 -2.914062 9.625 -3.28125 C 9.507812 -3.644531 9.410156 -3.921875 9.328125 -4.109375 C 9.171875 -4.441406 9.03125 -4.816406 8.90625 -5.234375 L 8.671875 -5.984375 C 8.585938 -6.179688 8.519531 -6.300781 8.46875 -6.34375 C 8.425781 -6.382812 8.351562 -6.40625 8.25 -6.40625 C 7.882812 -6.40625 7.617188 -6.394531 7.453125 -6.375 L 6.328125 -6.328125 C 6.191406 -6.304688 5.550781 -6.296875 4.40625 -6.296875 L 2.765625 -6.296875 C 2.660156 -6.296875 2.582031 -6.203125 2.53125 -6.015625 L 2.46875 -5.75 L 2.375 -5.265625 C 2.332031 -5.160156 2.21875 -4.65625 2.03125 -3.75 C 1.976562 -3.457031 1.890625 -3.078125 1.765625 -2.609375 C 1.734375 -2.253906 1.65625 -1.96875 1.53125 -1.75 C 1.5 -1.695312 1.457031 -1.570312 1.40625 -1.375 C 1.351562 -1.1875 1.3125 -1.03125 1.28125 -0.90625 C 1.226562 -0.769531 1.164062 -0.546875 1.09375 -0.234375 C 1.070312 -0.210938 1.050781 -0.171875 1.03125 -0.109375 C 1.019531 -0.0546875 0.992188 -0.0234375 0.953125 -0.015625 C 0.921875 -0.00390625 0.875 0 0.8125 0 Z M 5.265625 -8.078125 C 5.472656 -8.109375 5.765625 -8.125 6.140625 -8.125 L 7.546875 -8.09375 C 7.773438 -8.09375 7.890625 -8.15625 7.890625 -8.28125 C 7.890625 -8.363281 7.828125 -8.554688 7.703125 -8.859375 C 7.597656 -9.117188 7.441406 -9.601562 7.234375 -10.3125 C 7.078125 -10.882812 6.921875 -11.378906 6.765625 -11.796875 C 6.597656 -12.316406 6.410156 -12.929688 6.203125 -13.640625 C 6.003906 -14.359375 5.890625 -14.820312 5.859375 -15.03125 C 5.597656 -15.945312 5.425781 -16.40625 5.34375 -16.40625 C 5.289062 -16.40625 5.203125 -16.171875 5.078125 -15.703125 L 4.921875 -15.140625 C 4.796875 -14.671875 4.640625 -14.082031 4.453125 -13.375 C 4.265625 -12.664062 4.09375 -12.070312 3.9375 -11.59375 C 3.832031 -11.132812 3.6875 -10.5625 3.5 -9.875 C 3.320312 -9.195312 3.179688 -8.726562 3.078125 -8.46875 C 3.035156 -8.363281 3.015625 -8.300781 3.015625 -8.28125 C 3.015625 -8.15625 3.070312 -8.078125 3.1875 -8.046875 C 3.300781 -8.015625 3.414062 -8 3.53125 -8 C 3.644531 -8.007812 3.71875 -8.015625 3.75 -8.015625 Z M 5.265625 -8.078125 "/></g></g></g><g fill="#393536" fill-opacity="1"><g transform="translate(168.307095, 287.768993)"><g><path d="M 5.8125 0 C 5.601562 0 5.476562 -0.03125 5.4375 -0.09375 C 5.40625 -0.164062 5.390625 -0.289062 5.390625 -0.46875 C 5.390625 -0.65625 5.390625 -0.796875 5.390625 -0.890625 L 5.5 -4.109375 C 5.601562 -6.921875 5.65625 -8.726562 5.65625 -9.53125 C 5.65625 -9.976562 5.632812 -10.65625 5.59375 -11.5625 L 5.578125 -12.953125 C 4.328125 -12.953125 3.054688 -12.929688 1.765625 -12.890625 L 0.96875 -12.875 C 0.738281 -12.875 0.578125 -12.929688 0.484375 -13.046875 C 0.398438 -13.171875 0.382812 -13.3125 0.4375 -13.46875 L 0.46875 -14.125 C 0.5 -15.125 0.515625 -16.050781 0.515625 -16.90625 C 0.515625 -17.320312 0.507812 -17.570312 0.5 -17.65625 L 0.5 -17.84375 C 0.5 -18.03125 0.535156 -18.140625 0.609375 -18.171875 C 0.691406 -18.210938 0.8125 -18.234375 0.96875 -18.234375 L 3.546875 -18.234375 L 5 -18.265625 C 5.90625 -18.296875 6.539062 -18.3125 6.90625 -18.3125 L 8.46875 -18.28125 C 9.71875 -18.25 10.695312 -18.234375 11.40625 -18.234375 C 11.925781 -18.234375 12.265625 -18.242188 12.421875 -18.265625 C 12.804688 -18.273438 13.078125 -18.210938 13.234375 -18.078125 C 13.390625 -17.953125 13.46875 -17.8125 13.46875 -17.65625 C 13.46875 -17.570312 13.453125 -17.347656 13.421875 -16.984375 C 13.398438 -16.617188 13.390625 -16.164062 13.390625 -15.625 C 13.390625 -15.144531 13.414062 -14.488281 13.46875 -13.65625 C 13.46875 -13.1875 13.160156 -12.953125 12.546875 -12.953125 L 7.96875 -12.953125 L 7.921875 -10.265625 C 7.898438 -9.960938 7.890625 -9.222656 7.890625 -8.046875 C 7.890625 -6.828125 7.894531 -5.644531 7.90625 -4.5 C 7.925781 -3.351562 7.9375 -2.363281 7.9375 -1.53125 L 7.96875 -0.46875 L 7.96875 -0.34375 C 7.96875 -0.1875 7.945312 -0.0859375 7.90625 -0.046875 C 7.863281 -0.015625 7.804688 0 7.734375 0 C 7.660156 0 7.609375 0 7.578125 0 Z M 5.8125 0 "/></g></g></g><g fill="#393536" fill-opacity="1"><g transform="translate(180.471067, 287.768993)"><g/></g></g><g fill="#393536" fill-opacity="1"><g transform="translate(185.628386, 287.768993)"><g><path d="M 1.328125 -0.03125 C 0.992188 -0.03125 0.828125 -0.125 0.828125 -0.3125 C 0.828125 -0.4375 0.867188 -0.5625 0.953125 -0.6875 C 1.046875 -0.820312 1.140625 -0.941406 1.234375 -1.046875 C 1.328125 -1.160156 1.398438 -1.242188 1.453125 -1.296875 C 1.546875 -1.398438 2.148438 -2.113281 3.265625 -3.4375 C 4.390625 -4.757812 5.265625 -5.828125 5.890625 -6.640625 L 6.515625 -7.421875 C 7.242188 -8.335938 7.851562 -9.15625 8.34375 -9.875 C 8.84375 -10.601562 9.300781 -11.425781 9.71875 -12.34375 C 9.90625 -12.757812 10 -13.25 10 -13.8125 C 10 -14.644531 9.707031 -15.269531 9.125 -15.6875 C 8.539062 -16.101562 7.894531 -16.3125 7.1875 -16.3125 C 6.507812 -16.3125 5.945312 -16.253906 5.5 -16.140625 C 5.0625 -16.023438 4.570312 -15.851562 4.03125 -15.625 C 3.738281 -15.488281 3.390625 -15.265625 2.984375 -14.953125 C 2.578125 -14.640625 2.328125 -14.457031 2.234375 -14.40625 L 2.109375 -14.359375 C 2.078125 -14.359375 2.035156 -14.378906 1.984375 -14.421875 C 1.941406 -14.460938 1.90625 -14.492188 1.875 -14.515625 C 1.800781 -14.578125 1.722656 -14.628906 1.640625 -14.671875 C 1.554688 -14.722656 1.488281 -14.773438 1.4375 -14.828125 C 1.382812 -14.890625 1.351562 -14.9375 1.34375 -14.96875 C 1.332031 -15.007812 1.351562 -15.070312 1.40625 -15.15625 C 1.71875 -15.59375 2.144531 -16.082031 2.6875 -16.625 C 2.894531 -16.832031 3.28125 -17.109375 3.84375 -17.453125 C 4.40625 -17.796875 4.992188 -18.097656 5.609375 -18.359375 C 6.222656 -18.617188 6.75 -18.75 7.1875 -18.75 C 7.988281 -18.75 8.703125 -18.554688 9.328125 -18.171875 C 9.953125 -17.796875 10.429688 -17.300781 10.765625 -16.6875 C 11.109375 -16.070312 11.28125 -15.425781 11.28125 -14.75 C 11.28125 -14 11.148438 -13.316406 10.890625 -12.703125 C 10.628906 -12.097656 10.253906 -11.421875 9.765625 -10.671875 C 9.734375 -10.617188 9.59375 -10.40625 9.34375 -10.03125 C 9.03125 -9.507812 8.3125 -8.519531 7.1875 -7.0625 C 6.0625 -5.601562 5.425781 -4.800781 5.28125 -4.65625 C 5.195312 -4.570312 5.117188 -4.484375 5.046875 -4.390625 C 4.984375 -4.304688 4.992188 -4.265625 5.078125 -4.265625 C 5.128906 -4.265625 5.253906 -4.257812 5.453125 -4.25 C 5.648438 -4.25 6.003906 -4.25 6.515625 -4.25 C 6.910156 -4.25 7.210938 -4.253906 7.421875 -4.265625 C 9.171875 -4.265625 10.488281 -4.300781 11.375 -4.375 C 11.757812 -4.40625 11.992188 -4.363281 12.078125 -4.25 C 12.171875 -4.144531 12.210938 -4.015625 12.203125 -3.859375 C 12.191406 -3.710938 12.1875 -3.613281 12.1875 -3.5625 L 12.1875 -0.8125 C 12.1875 -0.476562 12.113281 -0.269531 11.96875 -0.1875 C 11.832031 -0.113281 11.566406 -0.078125 11.171875 -0.078125 C 10.804688 -0.078125 10.484375 -0.0664062 10.203125 -0.046875 L 8.203125 -0.03125 C 7.703125 -0.03125 7.375 -0.0351562 7.21875 -0.046875 L 3.09375 -0.078125 C 2.25 -0.078125 1.78125 -0.0664062 1.6875 -0.046875 C 1.625 -0.0351562 1.503906 -0.03125 1.328125 -0.03125 Z M 1.328125 -0.03125 "/></g></g></g><g fill="#393536" fill-opacity="1"><g transform="translate(197.036985, 287.768993)"><g/></g></g><g fill="#393536" fill-opacity="1"><g transform="translate(202.194304, 287.768993)"><g><path d="M 2.1875 0 C 1.925781 0 1.773438 -0.0546875 1.734375 -0.171875 C 1.691406 -0.285156 1.675781 -0.523438 1.6875 -0.890625 C 1.6875 -1.460938 1.679688 -2.007812 1.671875 -2.53125 L 1.609375 -5.734375 C 1.609375 -6.210938 1.625 -6.71875 1.65625 -7.25 C 1.695312 -7.78125 1.726562 -8.253906 1.75 -8.671875 C 1.832031 -9.921875 1.875 -10.796875 1.875 -11.296875 L 1.921875 -16.203125 L 1.90625 -17.609375 C 1.90625 -18.210938 1.945312 -18.5625 2.03125 -18.65625 C 2.082031 -18.707031 2.144531 -18.734375 2.21875 -18.734375 C 2.25 -18.734375 2.304688 -18.71875 2.390625 -18.6875 C 2.484375 -18.664062 2.582031 -18.65625 2.6875 -18.65625 L 3.484375 -18.671875 C 3.816406 -18.671875 4.0625 -18.65625 4.21875 -18.625 C 4.375 -18.570312 4.484375 -18.445312 4.546875 -18.25 C 4.617188 -18.050781 4.679688 -17.820312 4.734375 -17.5625 C 4.785156 -17.3125 4.832031 -17.117188 4.875 -16.984375 C 4.957031 -16.515625 5.160156 -15.863281 5.484375 -15.03125 C 5.804688 -14.195312 6.113281 -13.46875 6.40625 -12.84375 C 6.644531 -12.425781 6.96875 -11.75 7.375 -10.8125 C 7.789062 -9.882812 8.082031 -9.15625 8.25 -8.625 C 8.351562 -8.34375 8.503906 -7.992188 8.703125 -7.578125 L 9.09375 -6.640625 L 9.640625 -5.421875 C 10.140625 -6.410156 10.503906 -7.128906 10.734375 -7.578125 L 12.421875 -10.96875 L 13.59375 -13.3125 C 14.207031 -14.5625 14.617188 -15.367188 14.828125 -15.734375 C 15.148438 -16.410156 15.492188 -17.039062 15.859375 -17.625 C 16.222656 -18.207031 16.484375 -18.5 16.640625 -18.5 C 16.785156 -18.5 16.859375 -18.382812 16.859375 -18.15625 C 16.859375 -17.945312 16.8125 -17.671875 16.71875 -17.328125 L 16.625 -16.671875 C 16.550781 -16.203125 16.515625 -14.117188 16.515625 -10.421875 C 16.515625 -9.597656 16.492188 -8.601562 16.453125 -7.4375 C 16.410156 -6.28125 16.367188 -5.507812 16.328125 -5.125 C 16.296875 -4.675781 16.28125 -4.007812 16.28125 -3.125 L 16.3125 -0.59375 L 16.3125 -0.46875 C 16.3125 -0.257812 16.257812 -0.171875 16.15625 -0.203125 L 16.09375 -0.203125 C 16.007812 -0.203125 15.910156 -0.191406 15.796875 -0.171875 C 15.679688 -0.160156 15.566406 -0.15625 15.453125 -0.15625 C 15.378906 -0.175781 15.328125 -0.21875 15.296875 -0.28125 C 15.273438 -0.351562 15.265625 -0.476562 15.265625 -0.65625 L 15.265625 -2.1875 C 15.265625 -3.957031 15.28125 -5 15.3125 -5.3125 C 15.351562 -5.675781 15.394531 -6.351562 15.4375 -7.34375 C 15.476562 -8.332031 15.5 -9.128906 15.5 -9.734375 C 15.476562 -9.890625 15.488281 -10.378906 15.53125 -11.203125 L 15.546875 -12.140625 L 15.609375 -14.015625 C 15.484375 -13.835938 15.378906 -13.65625 15.296875 -13.46875 C 15.117188 -13.175781 14.953125 -12.851562 14.796875 -12.5 L 14.53125 -11.984375 C 14.238281 -11.410156 13.898438 -10.734375 13.515625 -9.953125 C 13.140625 -9.179688 12.8125 -8.53125 12.53125 -8 C 12.21875 -7.375 11.820312 -6.566406 11.34375 -5.578125 C 10.863281 -4.597656 10.492188 -3.820312 10.234375 -3.25 C 9.785156 -2.195312 9.523438 -1.671875 9.453125 -1.671875 C 9.398438 -1.671875 9.320312 -1.753906 9.21875 -1.921875 C 9.113281 -2.097656 9.046875 -2.210938 9.015625 -2.265625 C 8.890625 -2.453125 8.695312 -2.851562 8.4375 -3.46875 C 8.175781 -4.09375 7.96875 -4.640625 7.8125 -5.109375 C 7.707031 -5.421875 7.253906 -6.296875 6.453125 -7.734375 C 5.828125 -8.929688 5.507812 -9.554688 5.5 -9.609375 C 5.320312 -9.953125 5.085938 -10.535156 4.796875 -11.359375 C 4.597656 -11.785156 4.445312 -12.164062 4.34375 -12.5 L 4.296875 -11.359375 L 4.25 -9.578125 L 4.1875 -4.453125 L 4.171875 -0.390625 C 4.171875 -0.234375 4.125 -0.132812 4.03125 -0.09375 C 3.945312 -0.0625 3.84375 -0.0507812 3.71875 -0.0625 C 3.601562 -0.0703125 3.507812 -0.078125 3.4375 -0.078125 L 2.859375 -0.046875 C 2.546875 -0.015625 2.320312 0 2.1875 0 Z M 2.1875 0 "/></g></g></g><g fill="#393536" fill-opacity="1"><g transform="translate(218.916499, 287.768993)"><g><path d="M 0.28125 0 C 0.125 0 0.0820312 -0.113281 0.15625 -0.34375 C 0.15625 -0.394531 0.164062 -0.4375 0.1875 -0.46875 C 0.1875 -0.5 0.191406 -0.539062 0.203125 -0.59375 C 0.222656 -0.644531 0.25 -0.722656 0.28125 -0.828125 L 0.515625 -1.796875 C 0.554688 -1.898438 0.617188 -2.082031 0.703125 -2.34375 C 0.785156 -2.601562 0.847656 -2.847656 0.890625 -3.078125 C 0.972656 -3.492188 1.132812 -4.125 1.375 -4.96875 L 1.59375 -5.703125 C 1.914062 -6.773438 2.125 -7.53125 2.21875 -7.96875 L 2.578125 -9.34375 C 2.753906 -9.914062 2.859375 -10.28125 2.890625 -10.4375 C 3.015625 -10.957031 3.1875 -11.609375 3.40625 -12.390625 L 3.59375 -13.125 L 3.75 -13.671875 C 3.925781 -14.265625 4.070312 -14.691406 4.1875 -14.953125 C 4.226562 -15.054688 4.351562 -15.414062 4.5625 -16.03125 C 4.78125 -16.644531 4.925781 -17.132812 5 -17.5 C 5.125 -17.914062 5.25 -18.226562 5.375 -18.4375 C 5.507812 -18.644531 5.6875 -18.75 5.90625 -18.75 C 6 -18.75 6.085938 -18.671875 6.171875 -18.515625 C 6.253906 -18.359375 6.335938 -18.164062 6.421875 -17.9375 C 6.515625 -17.71875 6.578125 -17.554688 6.609375 -17.453125 C 6.753906 -17.117188 7 -16.296875 7.34375 -14.984375 L 7.546875 -14.25 C 7.566406 -14.113281 7.851562 -13.257812 8.40625 -11.6875 L 8.90625 -10.265625 L 9.375 -9.03125 C 9.863281 -7.664062 10.175781 -6.832031 10.3125 -6.53125 C 10.914062 -4.695312 11.269531 -3.585938 11.375 -3.203125 C 11.5 -2.753906 11.695312 -2.191406 11.96875 -1.515625 C 12.238281 -0.835938 12.390625 -0.453125 12.421875 -0.359375 C 12.472656 -0.242188 12.5 -0.160156 12.5 -0.109375 C 12.5 -0.0351562 12.40625 0 12.21875 0 L 10.75 0 C 10.6875 0 10.628906 -0.0078125 10.578125 -0.03125 C 10.535156 -0.0625 10.5 -0.128906 10.46875 -0.234375 C 10.394531 -0.421875 10.300781 -0.734375 10.1875 -1.171875 C 10.03125 -1.609375 9.925781 -2 9.875 -2.34375 C 9.820312 -2.601562 9.738281 -2.914062 9.625 -3.28125 C 9.507812 -3.644531 9.410156 -3.921875 9.328125 -4.109375 C 9.171875 -4.441406 9.03125 -4.816406 8.90625 -5.234375 L 8.671875 -5.984375 C 8.585938 -6.179688 8.519531 -6.300781 8.46875 -6.34375 C 8.425781 -6.382812 8.351562 -6.40625 8.25 -6.40625 C 7.882812 -6.40625 7.617188 -6.394531 7.453125 -6.375 L 6.328125 -6.328125 C 6.191406 -6.304688 5.550781 -6.296875 4.40625 -6.296875 L 2.765625 -6.296875 C 2.660156 -6.296875 2.582031 -6.203125 2.53125 -6.015625 L 2.46875 -5.75 L 2.375 -5.265625 C 2.332031 -5.160156 2.21875 -4.65625 2.03125 -3.75 C 1.976562 -3.457031 1.890625 -3.078125 1.765625 -2.609375 C 1.734375 -2.253906 1.65625 -1.96875 1.53125 -1.75 C 1.5 -1.695312 1.457031 -1.570312 1.40625 -1.375 C 1.351562 -1.1875 1.3125 -1.03125 1.28125 -0.90625 C 1.226562 -0.769531 1.164062 -0.546875 1.09375 -0.234375 C 1.070312 -0.210938 1.050781 -0.171875 1.03125 -0.109375 C 1.019531 -0.0546875 0.992188 -0.0234375 0.953125 -0.015625 C 0.921875 -0.00390625 0.875 0 0.8125 0 Z M 5.265625 -8.078125 C 5.472656 -8.109375 5.765625 -8.125 6.140625 -8.125 L 7.546875 -8.09375 C 7.773438 -8.09375 7.890625 -8.15625 7.890625 -8.28125 C 7.890625 -8.363281 7.828125 -8.554688 7.703125 -8.859375 C 7.597656 -9.117188 7.441406 -9.601562 7.234375 -10.3125 C 7.078125 -10.882812 6.921875 -11.378906 6.765625 -11.796875 C 6.597656 -12.316406 6.410156 -12.929688 6.203125 -13.640625 C 6.003906 -14.359375 5.890625 -14.820312 5.859375 -15.03125 C 5.597656 -15.945312 5.425781 -16.40625 5.34375 -16.40625 C 5.289062 -16.40625 5.203125 -16.171875 5.078125 -15.703125 L 4.921875 -15.140625 C 4.796875 -14.671875 4.640625 -14.082031 4.453125 -13.375 C 4.265625 -12.664062 4.09375 -12.070312 3.9375 -11.59375 C 3.832031 -11.132812 3.6875 -10.5625 3.5 -9.875 C 3.320312 -9.195312 3.179688 -8.726562 3.078125 -8.46875 C 3.035156 -8.363281 3.015625 -8.300781 3.015625 -8.28125 C 3.015625 -8.15625 3.070312 -8.078125 3.1875 -8.046875 C 3.300781 -8.015625 3.414062 -8 3.53125 -8 C 3.644531 -8.007812 3.71875 -8.015625 3.75 -8.015625 Z M 5.265625 -8.078125 "/></g></g></g><g fill="#393536" fill-opacity="1"><g transform="translate(229.673921, 287.768993)"><g><path d="M 11.140625 0.109375 C 10.929688 0.109375 10.753906 0.0703125 10.609375 0 C 10.460938 -0.0703125 10.300781 -0.191406 10.125 -0.359375 C 10.007812 -0.460938 9.550781 -1.035156 8.75 -2.078125 C 8.125 -2.929688 7.691406 -3.488281 7.453125 -3.75 C 7.140625 -4.03125 6.675781 -4.539062 6.0625 -5.28125 L 5.125 -6.359375 C 5.125 -5.835938 5.117188 -5.460938 5.109375 -5.234375 L 5.046875 -3.5625 L 5.03125 -1.765625 C 5.03125 -1.128906 5.054688 -0.710938 5.109375 -0.515625 C 5.117188 -0.460938 5.125 -0.40625 5.125 -0.34375 C 5.125 -0.21875 5.09375 -0.140625 5.03125 -0.109375 C 4.976562 -0.0859375 4.890625 -0.078125 4.765625 -0.078125 L 3.71875 -0.078125 L 3.09375 -0.046875 C 2.644531 -0.015625 2.316406 0 2.109375 0 C 1.929688 0 1.828125 -0.0078125 1.796875 -0.03125 C 1.671875 -0.03125 1.609375 -0.0820312 1.609375 -0.1875 C 1.609375 -0.238281 1.644531 -0.367188 1.71875 -0.578125 C 1.75 -0.691406 1.734375 -0.96875 1.671875 -1.40625 C 1.648438 -1.507812 1.628906 -1.640625 1.609375 -1.796875 C 1.597656 -1.953125 1.59375 -2.117188 1.59375 -2.296875 C 1.601562 -3.242188 1.628906 -4.765625 1.671875 -6.859375 C 1.722656 -8.953125 1.773438 -10.144531 1.828125 -10.4375 C 1.878906 -10.90625 1.90625 -11.773438 1.90625 -13.046875 C 1.90625 -13.710938 1.894531 -14.125 1.875 -14.28125 C 1.851562 -14.414062 1.84375 -14.78125 1.84375 -15.375 C 1.84375 -15.894531 1.851562 -16.410156 1.875 -16.921875 C 1.90625 -17.429688 1.941406 -17.765625 1.984375 -17.921875 C 1.992188 -18.097656 2.085938 -18.1875 2.265625 -18.1875 C 2.347656 -18.1875 2.429688 -18.171875 2.515625 -18.140625 C 2.609375 -18.117188 2.695312 -18.109375 2.78125 -18.109375 C 3.113281 -18.109375 3.367188 -18.097656 3.546875 -18.078125 C 3.679688 -18.078125 3.84375 -18.070312 4.03125 -18.0625 C 4.226562 -18.050781 4.457031 -18.054688 4.71875 -18.078125 L 4.875 -18.078125 C 5.007812 -18.078125 5.097656 -18.050781 5.140625 -18 C 5.179688 -17.945312 5.203125 -17.867188 5.203125 -17.765625 L 5.203125 -14.953125 C 5.203125 -12.921875 5.171875 -11.625 5.109375 -11.0625 C 5.066406 -10.6875 5.046875 -10.382812 5.046875 -10.15625 L 5.078125 -9.296875 L 5.125 -8.40625 L 5.546875 -8.859375 C 5.628906 -8.960938 5.878906 -9.222656 6.296875 -9.640625 C 6.503906 -9.828125 6.882812 -10.21875 7.4375 -10.8125 C 8 -11.414062 8.4375 -11.890625 8.75 -12.234375 C 8.882812 -12.429688 9.210938 -12.816406 9.734375 -13.390625 C 10.253906 -13.960938 10.734375 -14.46875 11.171875 -14.90625 C 11.453125 -15.21875 11.722656 -15.503906 11.984375 -15.765625 C 13.003906 -16.890625 13.550781 -17.515625 13.625 -17.640625 C 13.800781 -17.898438 13.984375 -18.046875 14.171875 -18.078125 C 14.222656 -18.078125 14.332031 -18.082031 14.5 -18.09375 C 14.664062 -18.101562 14.800781 -18.097656 14.90625 -18.078125 C 15.019531 -18.054688 15.078125 -17.992188 15.078125 -17.890625 C 15.078125 -17.828125 15.035156 -17.75 14.953125 -17.65625 C 14.921875 -17.625 14.695312 -17.394531 14.28125 -16.96875 C 13.863281 -16.539062 13.539062 -16.234375 13.3125 -16.046875 C 13.132812 -15.890625 12.625 -15.296875 11.78125 -14.265625 C 10.9375 -13.242188 10.4375 -12.617188 10.28125 -12.390625 C 9.832031 -11.890625 9.285156 -11.300781 8.640625 -10.625 L 7.234375 -9.171875 C 7.148438 -9.285156 7.457031 -8.925781 8.15625 -8.09375 C 8.632812 -7.507812 9.09375 -7 9.53125 -6.5625 C 9.707031 -6.382812 10.226562 -5.773438 11.09375 -4.734375 C 12.207031 -3.429688 12.828125 -2.726562 12.953125 -2.625 C 13.117188 -2.46875 13.585938 -1.929688 14.359375 -1.015625 L 14.875 -0.390625 C 14.925781 -0.316406 14.953125 -0.25 14.953125 -0.1875 C 14.953125 -0.0390625 14.804688 0.03125 14.515625 0.03125 Z M 11.140625 0.109375 "/></g></g></g><g fill="#393536" fill-opacity="1"><g transform="translate(243.71328, 287.768993)"><g><path d="M 1.921875 0.046875 C 1.816406 0.046875 1.753906 0.0195312 1.734375 -0.03125 C 1.722656 -0.09375 1.71875 -0.210938 1.71875 -0.390625 C 1.695312 -0.578125 1.6875 -0.898438 1.6875 -1.359375 C 1.6875 -1.492188 1.675781 -1.644531 1.65625 -1.8125 C 1.644531 -1.976562 1.640625 -2.195312 1.640625 -2.46875 L 1.640625 -6.046875 C 1.640625 -6.390625 1.648438 -6.722656 1.671875 -7.046875 C 1.703125 -7.378906 1.71875 -7.625 1.71875 -7.78125 C 1.789062 -8.582031 1.828125 -9.347656 1.828125 -10.078125 C 1.828125 -10.984375 1.800781 -11.695312 1.75 -12.21875 C 1.707031 -12.8125 1.6875 -13.347656 1.6875 -13.828125 C 1.6875 -14.921875 1.710938 -16.195312 1.765625 -17.65625 C 1.765625 -17.882812 1.804688 -18.035156 1.890625 -18.109375 C 1.984375 -18.191406 2.109375 -18.234375 2.265625 -18.234375 L 2.65625 -18.203125 C 2.8125 -18.203125 3.0625 -18.1875 3.40625 -18.15625 C 3.757812 -18.132812 4.1875 -18.125 4.6875 -18.125 C 5.257812 -18.125 5.9375 -18.171875 6.71875 -18.265625 C 7.65625 -18.328125 8.28125 -18.359375 8.59375 -18.359375 C 9.300781 -18.359375 9.953125 -18.332031 10.546875 -18.28125 L 11.484375 -18.265625 C 11.710938 -18.265625 11.859375 -18.210938 11.921875 -18.109375 C 11.992188 -18.003906 12.03125 -17.8125 12.03125 -17.53125 C 12.03125 -17.375 12.046875 -17.101562 12.078125 -16.71875 C 12.117188 -16.269531 12.140625 -15.878906 12.140625 -15.546875 C 12.140625 -15.203125 12.113281 -14.882812 12.0625 -14.59375 C 12.039062 -14.332031 11.914062 -14.203125 11.6875 -14.203125 C 11.625 -14.203125 11.53125 -14.21875 11.40625 -14.25 C 11.28125 -14.28125 11.1875 -14.304688 11.125 -14.328125 C 10.863281 -14.378906 10.109375 -14.40625 8.859375 -14.40625 L 7.859375 -14.4375 C 7.640625 -14.445312 7.3125 -14.453125 6.875 -14.453125 C 6.5625 -14.453125 6.328125 -14.445312 6.171875 -14.4375 C 5.648438 -14.394531 5.191406 -14.375 4.796875 -14.375 L 3.40625 -14.40625 C 3.269531 -14.40625 3.191406 -14.375 3.171875 -14.3125 C 3.160156 -14.25 3.15625 -14.109375 3.15625 -13.890625 C 3.15625 -13.578125 3.144531 -13.304688 3.125 -13.078125 C 3.09375 -12.378906 3.078125 -11.8125 3.078125 -11.375 L 3.078125 -9.84375 C 3.078125 -9.476562 3.082031 -9.203125 3.09375 -9.015625 C 3.238281 -8.992188 3.472656 -8.984375 3.796875 -8.984375 C 4.097656 -8.960938 4.707031 -8.953125 5.625 -8.953125 C 6.007812 -8.953125 6.566406 -8.972656 7.296875 -9.015625 C 7.847656 -9.046875 8.210938 -9.0625 8.390625 -9.0625 C 8.628906 -9.0625 8.867188 -9.046875 9.109375 -9.015625 C 9.359375 -8.992188 9.539062 -8.984375 9.65625 -8.984375 C 9.882812 -8.984375 10 -8.878906 10 -8.671875 C 10 -8.597656 9.988281 -8.492188 9.96875 -8.359375 C 9.957031 -8.234375 9.953125 -8.066406 9.953125 -7.859375 L 9.96875 -6.484375 C 9.96875 -6.328125 9.953125 -6.21875 9.921875 -6.15625 C 9.890625 -6.09375 9.828125 -6.0625 9.734375 -6.0625 C 9.679688 -6.0625 9.609375 -6.070312 9.515625 -6.09375 C 9.421875 -6.125 9.335938 -6.140625 9.265625 -6.140625 C 9.109375 -6.140625 8.816406 -6.148438 8.390625 -6.171875 C 7.972656 -6.191406 7.398438 -6.203125 6.671875 -6.203125 C 5.890625 -6.203125 5.210938 -6.164062 4.640625 -6.09375 C 4.066406 -6.019531 3.71875 -5.984375 3.59375 -5.984375 C 3.40625 -5.984375 3.289062 -5.992188 3.25 -6.015625 C 3.164062 -6.015625 3.113281 -6.023438 3.09375 -6.046875 L 3.09375 -3.4375 C 3.21875 -3.4375 3.316406 -3.445312 3.390625 -3.46875 L 4.109375 -3.484375 L 7.1875 -3.515625 C 7.8125 -3.515625 8.304688 -3.503906 8.671875 -3.484375 L 10.46875 -3.46875 L 11.5625 -3.484375 C 11.769531 -3.484375 11.90625 -3.4375 11.96875 -3.34375 C 12.039062 -3.25 12.078125 -3.113281 12.078125 -2.9375 L 12.0625 -2.421875 L 12.03125 -0.59375 C 12.03125 -0.320312 11.96875 -0.15625 11.84375 -0.09375 C 11.726562 -0.03125 11.554688 -0.00390625 11.328125 -0.015625 C 11.097656 -0.0234375 10.914062 -0.03125 10.78125 -0.03125 C 10.03125 -0.03125 9.390625 -0.0351562 8.859375 -0.046875 L 6.203125 -0.078125 C 5.992188 -0.078125 4.953125 -0.0507812 3.078125 0 L 2.078125 0.03125 Z M 1.921875 0.046875 "/></g></g></g><g fill="#393536" fill-opacity="1"><g transform="translate(255.486542, 287.768993)"><g/></g></g><g fill="#393536" fill-opacity="1"><g transform="translate(260.643867, 287.768993)"><g><path d="M 4.875 -4.140625 C 4.59375 -4.140625 4.347656 -4.234375 4.140625 -4.421875 C 3.773438 -4.578125 3.59375 -4.726562 3.59375 -4.875 C 3.539062 -5.082031 3.515625 -5.320312 3.515625 -5.59375 L 3.546875 -6.484375 C 3.578125 -6.972656 3.59375 -7.351562 3.59375 -7.625 C 3.59375 -8.039062 3.738281 -8.492188 4.03125 -8.984375 C 4.332031 -9.484375 4.769531 -10.117188 5.34375 -10.890625 C 5.84375 -11.515625 6.160156 -11.972656 6.296875 -12.265625 C 6.597656 -12.804688 6.75 -13.3125 6.75 -13.78125 C 6.75 -14.269531 6.582031 -14.675781 6.25 -15 C 5.675781 -15.46875 5.128906 -15.703125 4.609375 -15.703125 C 4.398438 -15.703125 4.148438 -15.660156 3.859375 -15.578125 C 3.503906 -15.421875 3.007812 -15.054688 2.375 -14.484375 C 2.300781 -14.429688 2.191406 -14.457031 2.046875 -14.5625 C 1.910156 -14.664062 1.710938 -14.835938 1.453125 -15.078125 L 0.9375 -15.578125 C 0.8125 -15.703125 0.6875 -15.863281 0.5625 -16.0625 C 0.445312 -16.257812 0.453125 -16.382812 0.578125 -16.4375 C 1.078125 -16.988281 1.578125 -17.429688 2.078125 -17.765625 C 2.773438 -18.210938 3.390625 -18.5 3.921875 -18.625 C 4.453125 -18.757812 5.289062 -18.828125 6.4375 -18.828125 C 7.019531 -18.828125 7.570312 -18.617188 8.09375 -18.203125 C 8.613281 -17.785156 9.035156 -17.1875 9.359375 -16.40625 C 9.679688 -15.625 9.84375 -14.722656 9.84375 -13.703125 C 9.84375 -12.847656 9.59375 -12.007812 9.09375 -11.1875 C 8.601562 -10.363281 8.082031 -9.671875 7.53125 -9.109375 C 7.175781 -8.765625 6.910156 -8.347656 6.734375 -7.859375 C 6.566406 -7.378906 6.484375 -6.859375 6.484375 -6.296875 C 6.484375 -5.640625 6.421875 -5.195312 6.296875 -4.96875 C 6.265625 -4.832031 6.203125 -4.703125 6.109375 -4.578125 C 6.015625 -4.460938 5.914062 -4.382812 5.8125 -4.34375 C 5.738281 -4.332031 5.601562 -4.296875 5.40625 -4.234375 C 5.207031 -4.171875 5.03125 -4.140625 4.875 -4.140625 Z M 4.65625 0.390625 C 4.226562 0.390625 3.851562 0.195312 3.53125 -0.1875 C 3.207031 -0.582031 3.046875 -1.039062 3.046875 -1.5625 C 3.046875 -1.71875 3.054688 -1.835938 3.078125 -1.921875 C 3.234375 -2.773438 3.8125 -3.203125 4.8125 -3.203125 C 5.375 -3.203125 5.796875 -3.015625 6.078125 -2.640625 C 6.367188 -2.265625 6.515625 -1.867188 6.515625 -1.453125 C 6.515625 -1.335938 6.503906 -1.253906 6.484375 -1.203125 C 6.484375 -1.003906 6.394531 -0.78125 6.21875 -0.53125 C 6.050781 -0.28125 5.828125 -0.0664062 5.546875 0.109375 C 5.265625 0.296875 4.96875 0.390625 4.65625 0.390625 Z M 4.65625 0.390625 "/></g></g></g><g clip-path="url(#fc3fddc992)"><path fill="#8cc342" d="M 207.199219 105.691406 C 207.261719 119.257812 200.925781 126.542969 187.8125 127.167969 C 187.648438 127.175781 187.636719 127.417969 187.800781 127.441406 C 192.085938 128.042969 195.992188 127.925781 199.386719 126.839844 C 210.589844 123.25 212.058594 109.558594 208.511719 99.84375 C 208.335938 99.359375 207.710938 99.261719 207.390625 99.664062 C 201.332031 107.242188 184.792969 106.210938 191.960938 124.65625 C 200.914062 121.773438 206.460938 115.867188 207.199219 105.691406 " fill-opacity="1" fill-rule="evenodd"/></g><g clip-path="url(#e0cd47fef3)"><path fill="#8cc342" d="M 189.652344 174.800781 C 189.589844 161.230469 195.925781 153.945312 209.039062 153.324219 C 209.207031 153.316406 209.214844 153.074219 209.050781 153.050781 C 204.765625 152.445312 200.863281 152.5625 197.46875 153.652344 C 186.261719 157.238281 184.792969 170.933594 188.339844 180.644531 C 188.515625 181.128906 189.140625 181.226562 189.460938 180.824219 C 195.523438 173.25 212.058594 174.28125 204.890625 155.835938 C 195.941406 158.714844 190.390625 164.621094 189.652344 174.800781 " fill-opacity="1" fill-rule="evenodd"/></g></svg>