<?xml version="1.0" encoding="UTF-8"?>
<svg version="1.1" xmlns="http://www.w3.org/2000/svg" width="329" height="86">
<path d="M0 0 C4.62 0 9.24 0 14 0 C15.5542753 3.88568824 16.42446585 6.7125038 17.0703125 10.73828125 C17.24433594 11.80498047 17.41835938 12.87167969 17.59765625 13.97070312 C17.77167969 15.07349609 17.94570313 16.17628906 18.125 17.3125 C18.30675781 18.43462891 18.48851563 19.55675781 18.67578125 20.71289062 C19.12233533 23.47447507 19.56355527 26.23680295 20 29 C21.72073085 27.27926915 21.57963333 24.88626859 21.9375 22.5390625 C22.11023438 21.42789062 22.28296875 20.31671875 22.4609375 19.171875 C22.63882813 18.00140625 22.81671875 16.8309375 23 15.625 C23.35185921 13.32516662 23.70592553 11.02566953 24.0625 8.7265625 C24.21847656 7.70127441 24.37445313 6.67598633 24.53515625 5.61962891 C25 3 25 3 26 0 C30.95 0 35.9 0 41 0 C41 19.47 41 38.94 41 59 C36.05 59.495 36.05 59.495 31 60 C30 59 30 59 29.88647461 56.22436523 C29.89171143 55.01466064 29.89694824 53.80495605 29.90234375 52.55859375 C29.90556641 51.25341797 29.90878906 49.94824219 29.91210938 48.60351562 C29.92046599 47.2148431 29.92893095 45.82617123 29.9375 44.4375 C29.94251334 43.04492344 29.94707653 41.65234519 29.95117188 40.25976562 C29.96300566 36.8398013 29.9794912 33.41992156 30 30 C29.87882812 31.16015625 29.75765625 32.3203125 29.6328125 33.515625 C26.91069139 59.08930861 26.91069139 59.08930861 25 61 C23.31816052 61.23287008 21.6287584 61.41264166 19.9375 61.5625 C19.01839844 61.64628906 18.09929688 61.73007813 17.15234375 61.81640625 C16.44207031 61.87699219 15.73179688 61.93757813 15 62 C13.25374177 56.40438123 12.23862917 50.85404346 11.375 45.0625 C10.694375 40.5765625 10.694375 40.5765625 10 36 C10 44.58 10 53.16 10 62 C8 63 8 63 0 63 C0 42.21 0 21.42 0 0 Z " fill="#DB202C" transform="translate(10,10)"/>
<path d="M0 0 C1.37478516 0.01740234 1.37478516 0.01740234 2.77734375 0.03515625 C3.69644531 0.04417969 4.61554688 0.05320312 5.5625 0.0625 C6.27277344 0.07410156 6.98304688 0.08570313 7.71484375 0.09765625 C9.48123685 3.99073564 10.14001044 7.46636106 10.56640625 11.7109375 C10.6953125 12.95810547 10.82421875 14.20527344 10.95703125 15.49023438 C11.08335937 16.78380859 11.2096875 18.07738281 11.33984375 19.41015625 C11.47390625 20.72306641 11.60796875 22.03597656 11.74609375 23.38867188 C12.07554948 26.62439784 12.3982184 29.86065381 12.71484375 33.09765625 C12.7710791 32.11998291 12.82731445 31.14230957 12.88525391 30.13500977 C13.3069363 22.97295062 13.89520863 15.85074465 14.71484375 8.72265625 C14.79782715 7.97959229 14.88081055 7.23652832 14.96630859 6.47094727 C15.59245588 1.22004412 15.59245588 1.22004412 16.71484375 0.09765625 C18.40093341 0.02560114 20.08985034 0.01379557 21.77734375 0.03515625 C22.69644531 0.04417969 23.61554688 0.05320312 24.5625 0.0625 C25.27277344 0.07410156 25.98304688 0.08570313 26.71484375 0.09765625 C28.46219833 5.56731658 29.27896244 10.82979797 29.83984375 16.53515625 C29.92621094 17.36208984 30.01257813 18.18902344 30.1015625 19.04101562 C30.31155991 21.05932403 30.51398826 23.07841758 30.71484375 25.09765625 C32.2127803 18.06524787 33.32118822 11.03737516 34.25 3.90625 C34.71484375 1.09765625 34.71484375 1.09765625 35.71484375 0.09765625 C37.23412413 0.02585661 38.75651857 0.01373618 40.27734375 0.03515625 C41.10363281 0.04417969 41.92992187 0.05320312 42.78125 0.0625 C43.41933594 0.07410156 44.05742187 0.08570313 44.71484375 0.09765625 C45.98873343 2.64543561 45.64246778 3.94204131 45.29345703 6.75927734 C45.17648468 7.72723236 45.05951233 8.69518738 44.93899536 9.69247437 C44.80572845 10.74141876 44.67246155 11.79036316 44.53515625 12.87109375 C44.40293671 13.94638336 44.27071716 15.02167297 44.13449097 16.12954712 C43.85311929 18.40801122 43.56878305 20.68611084 43.28173828 22.96386719 C42.84264891 26.45038235 42.41271614 29.93793099 41.984375 33.42578125 C41.71017527 35.63678577 41.43545288 37.84772554 41.16015625 40.05859375 C40.96632858 41.62593765 40.96632858 41.62593765 40.76858521 43.22494507 C40.5836702 44.68633408 40.5836702 44.68633408 40.39501953 46.17724609 C40.28763458 47.03281097 40.18024963 47.88837585 40.0696106 48.76986694 C39.71484375 51.09765625 39.71484375 51.09765625 38.71484375 55.09765625 C34.09484375 55.09765625 29.47484375 55.09765625 24.71484375 55.09765625 C23.0627216 50.14128979 22.37740423 46.80289148 22.08984375 41.72265625 C22.01507813 40.47742187 21.9403125 39.2321875 21.86328125 37.94921875 C21.81429687 37.00820313 21.7653125 36.0671875 21.71484375 35.09765625 C21.66473145 35.66798584 21.61461914 36.23831543 21.56298828 36.82592773 C21.33164663 39.39665282 21.08594327 41.96580382 20.83984375 44.53515625 C20.76121094 45.43298828 20.68257812 46.33082031 20.6015625 47.25585938 C20.51777344 48.10986328 20.43398437 48.96386719 20.34765625 49.84375 C20.23768311 51.02988892 20.23768311 51.02988892 20.12548828 52.23999023 C19.98997559 52.85302002 19.85446289 53.4660498 19.71484375 54.09765625 C16.77097752 55.56958937 14.34094339 54.94701798 11.08984375 54.66015625 C9.90132812 54.55832031 8.7128125 54.45648438 7.48828125 54.3515625 C6.57304687 54.26777344 5.6578125 54.18398437 4.71484375 54.09765625 C2.57188893 48.58827633 1.8987987 43.08983669 1.171875 37.265625 C1.03915695 36.23327225 0.9064389 35.20091949 0.7696991 34.13728333 C0.49201749 31.96502775 0.21736272 29.79238335 -0.05444336 27.61938477 C-0.47351832 24.27828332 -0.90505365 20.93895275 -1.33789062 17.59960938 C-1.60621293 15.4883757 -1.87381657 13.37705053 -2.140625 11.265625 C-2.27075485 10.26154099 -2.4008847 9.25745697 -2.53495789 8.22294617 C-2.64870255 7.30141251 -2.7624472 6.37987885 -2.87963867 5.43041992 C-2.98241623 4.61578781 -3.08519379 3.8011557 -3.19108582 2.96183777 C-3.22212906 2.34665787 -3.2531723 1.73147797 -3.28515625 1.09765625 C-2.28515625 0.09765625 -2.28515625 0.09765625 0 0 Z " fill="#DB202C" transform="translate(195.28515625,9.90234375)"/>
<path d="M0 0 C4.29 0 8.58 0 13 0 C16.39584421 7.15552886 18.79135208 14.39896168 21 22 C20.99214478 21.05362671 20.99214478 21.05362671 20.98413086 20.08813477 C20.96342174 17.24626653 20.95035934 14.40441412 20.9375 11.5625 C20.92912109 10.56927734 20.92074219 9.57605469 20.91210938 8.55273438 C20.90727539 7.13637695 20.90727539 7.13637695 20.90234375 5.69140625 C20.89448853 4.37958374 20.89448853 4.37958374 20.88647461 3.04125977 C21 1 21 1 22 0 C23.51928038 -0.07179964 25.04167482 -0.08392007 26.5625 -0.0625 C27.38878906 -0.05347656 28.21507813 -0.04445313 29.06640625 -0.03515625 C29.70449219 -0.02355469 30.34257813 -0.01195312 31 0 C31.99293809 2.97881427 32.12119785 4.91487239 32.11352539 8.0222168 C32.11344986 9.04304855 32.11337433 10.06388031 32.11329651 11.11564636 C32.10813522 12.21572525 32.10297394 13.31580414 32.09765625 14.44921875 C32.0962413 15.5769722 32.09482635 16.70472565 32.09336853 17.86665344 C32.0877647 21.47362912 32.07521153 25.08054304 32.0625 28.6875 C32.05748549 31.13085848 32.0529225 33.57421793 32.04882812 36.01757812 C32.03779403 42.01174259 32.02052679 48.00586082 32 54 C26.06 54.495 26.06 54.495 20 55 C17.36 46.75 14.72 38.5 12 30 C11.34963374 33.90219758 10.8761732 36.92128715 10.90234375 40.7421875 C10.90556641 41.58007812 10.90878906 42.41796875 10.91210938 43.28125 C10.92048828 44.1371875 10.92886719 44.993125 10.9375 45.875 C10.94201172 46.75414062 10.94652344 47.63328125 10.95117188 48.5390625 C10.96287663 50.69273803 10.98080931 52.84637817 11 55 C5.555 55.495 5.555 55.495 0 56 C0 37.52 0 19.04 0 0 Z M10 23 C11 26 11 26 11 26 Z " fill="#DB202C" transform="translate(91,10)"/>
<path d="M0 0 C3.1875 -0.3984375 3.1875 -0.3984375 7 -0.375 C8.8871875 -0.38660156 8.8871875 -0.38660156 10.8125 -0.3984375 C11.864375 -0.26695313 12.91625 -0.13546875 14 0 C16.00325347 3.0048802 16.41425572 4.41302354 16.96142578 7.87939453 C17.12144073 8.87117706 17.28145569 9.86295959 17.44631958 10.88479614 C17.61098724 11.95664154 17.77565491 13.02848694 17.9453125 14.1328125 C18.12005096 15.23922089 18.29478943 16.34562927 18.474823 17.48556519 C18.84315026 19.83030076 19.20772452 22.17562847 19.56884766 24.52148438 C20.11984671 28.09160992 20.68597354 31.65909636 21.25390625 35.2265625 C21.61029225 37.50766938 21.96578934 39.78891536 22.3203125 42.0703125 C22.48902863 43.13001251 22.65774475 44.18971252 22.83157349 45.28152466 C23.74177845 51.26640708 24.16927232 56.94634943 24 63 C22.741875 63.020625 21.48375 63.04125 20.1875 63.0625 C19.12595703 63.07990234 19.12595703 63.07990234 18.04296875 63.09765625 C16 63 16 63 13 62 C12.34 58.7 11.68 55.4 11 52 C8.03 51.67 5.06 51.34 2 51 C1.34 54.3 0.68 57.6 0 61 C-1.629375 60.87625 -3.25875 60.7525 -4.9375 60.625 C-5.85402344 60.55539063 -6.77054687 60.48578125 -7.71484375 60.4140625 C-8.46894531 60.27742188 -9.22304688 60.14078125 -10 60 C-11.35649222 57.28701556 -10.80294572 55.75900938 -10.3190918 52.77172852 C-10.14528488 51.6804213 -9.97147797 50.58911407 -9.79240417 49.46473694 C-9.59665298 48.28141281 -9.40090179 47.09808868 -9.19921875 45.87890625 C-9.00278275 44.6680687 -8.80634674 43.45723114 -8.60395813 42.20970154 C-8.07861198 38.98617591 -7.54685486 35.76378085 -7.01318359 32.54162598 C-6.47449833 29.26812367 -5.95082172 25.99219848 -5.42382812 22.71679688 C-5.01651394 20.22902096 -4.60833938 17.74138573 -4.19921875 15.25390625 C-3.914701 13.48195641 -3.914701 13.48195641 -3.62443542 11.67420959 C-3.44117203 10.57975021 -3.25790863 9.48529083 -3.0690918 8.35766602 C-2.91063278 7.39329117 -2.75217377 6.42891632 -2.58891296 5.43531799 C-2 3 -2 3 0 0 Z M6 19 C4.27851598 28.94588472 4.27851598 28.94588472 4 39 C4.33 39 4.66 39 5 39 C5.33 37.02 5.66 35.04 6 33 C6.33 33 6.66 33 7 33 C7.33 34.98 7.66 36.96 8 39 C8.33 39 8.66 39 9 39 C8.30313614 28.96650723 8.30313614 28.96650723 7 19 C6.67 19 6.34 19 6 19 Z M6 34 C6 35.65 6 37.3 6 39 C6.33 39 6.66 39 7 39 C7 37.35 7 35.7 7 34 C6.67 34 6.34 34 6 34 Z M3 39 C3 39.66 3 40.32 3 41 C5.31 41 7.62 41 10 41 C10 40.67 10 40.34 10 40 C7.69 39.67 5.38 39.34 3 39 Z " fill="#DB202C" transform="translate(295,10)"/>
<path d="M0 0 C5.94 0 11.88 0 18 0 C20.72883111 13.12161344 23.30024299 26.2620551 25.53311157 39.47723389 C25.76133915 40.82753119 25.9914675 42.17750857 26.22348022 43.52716064 C26.54833825 45.42331837 26.86422968 47.32100575 27.1796875 49.21875 C27.36257324 50.31123047 27.54545898 51.40371094 27.73388672 52.52929688 C27.8217041 53.34462891 27.90952148 54.15996094 28 55 C26.26043342 56.73956658 23.8063378 56.37190386 21.4375 56.5625 C20.42558594 56.64628906 19.41367188 56.73007813 18.37109375 56.81640625 C17.19740234 56.90728516 17.19740234 56.90728516 16 57 C14.8422494 53.52674819 14.93133348 50.63932552 15 47 C11.7 47.66 8.4 48.32 5 49 C4.34 51.97 3.68 54.94 3 58 C-1.95 58.495 -1.95 58.495 -7 59 C-8.36243892 56.27512216 -7.78314424 54.75104809 -7.27148438 51.75585938 C-7.08799438 50.66132446 -6.90450439 49.56678955 -6.7154541 48.43908691 C-6.51029175 47.25262573 -6.30512939 46.06616455 -6.09375 44.84375 C-5.89019897 43.63054077 -5.68664795 42.41733154 -5.47692871 41.1673584 C-4.71308626 36.61577067 -3.93773888 32.06617805 -3.16168213 27.5166626 C-2.40283964 23.064356 -1.65357977 18.61050106 -0.90625 14.15625 C-0.59850647 12.37655823 -0.59850647 12.37655823 -0.2845459 10.56091309 C-0.00931091 8.91911072 -0.00931091 8.91911072 0.27148438 7.24414062 C0.43660522 6.27754517 0.60172607 5.31094971 0.77185059 4.31506348 C1.20994089 1.97589977 1.20994089 1.97589977 0 0 Z M9 18 C8.66191314 20.06172613 8.32972639 22.1244203 8 24.1875 C7.814375 25.33605469 7.62875 26.48460937 7.4375 27.66796875 C7.06510523 30.50415393 6.91403979 33.14719564 7 36 C8.65 36 10.3 36 12 36 C11.34908323 26.95764945 11.34908323 26.95764945 10 18 C9.67 18 9.34 18 9 18 Z M6 37 C6 37.33 6 37.66 6 38 C8.31 38 10.62 38 13 38 C13 37.67 13 37.34 13 37 C10.69 37 8.38 37 6 37 Z " fill="#DB202C" transform="translate(61,10)"/>
<path d="M0 0 C1.39456452 0.00667256 2.78911118 0.01863093 4.18359375 0.03515625 C4.89451172 0.03966797 5.60542969 0.04417969 6.33789062 0.04882812 C8.09899388 0.06064761 9.86005411 0.07858362 11.62109375 0.09765625 C13.96904318 6.52357473 15.49168611 12.86897542 16.6640625 19.6015625 C16.83738602 20.56545395 17.01070953 21.5293454 17.18928528 22.52244568 C17.73532526 25.5672687 18.27210738 28.613637 18.80859375 31.66015625 C19.17972498 33.73904192 19.55146398 35.81781919 19.92382812 37.89648438 C20.82994476 42.96231608 21.72776885 48.02955385 22.62109375 53.09765625 C20.09633913 54.36003356 18.30908909 54.19622029 15.49609375 54.16015625 C14.58601563 54.15113281 13.6759375 54.14210937 12.73828125 54.1328125 C12.03960937 54.12121094 11.3409375 54.10960937 10.62109375 54.09765625 C8.62109375 47.34765625 8.62109375 47.34765625 8.62109375 45.09765625 C5.32109375 45.09765625 2.02109375 45.09765625 -1.37890625 45.09765625 C-1.31703125 46.48984375 -1.31703125 46.48984375 -1.25390625 47.91015625 C-1.37890625 51.09765625 -1.37890625 51.09765625 -3.37890625 54.09765625 C-5.76171875 54.390625 -5.76171875 54.390625 -8.50390625 54.28515625 C-9.86902344 54.24455078 -9.86902344 54.24455078 -11.26171875 54.203125 C-11.96039063 54.16832031 -12.6590625 54.13351563 -13.37890625 54.09765625 C-12.71965736 47.54179225 -11.74973391 41.10918372 -10.56640625 34.62890625 C-10.39262451 33.66738647 -10.21884277 32.7058667 -10.03979492 31.71520996 C-9.67488038 29.70146176 -9.30840457 27.68799591 -8.94042969 25.67480469 C-8.37562952 22.57969974 -7.81841672 19.48329004 -7.26171875 16.38671875 C-6.90540236 14.42569862 -6.54864747 12.46475811 -6.19140625 10.50390625 C-5.94136841 9.11032898 -5.94136841 9.11032898 -5.6862793 7.68859863 C-5.5294165 6.8368103 -5.37255371 5.98502197 -5.2109375 5.10742188 C-5.07405518 4.35513306 -4.93717285 3.60284424 -4.79614258 2.82775879 C-4.03000073 -0.34910735 -3.48045191 0.1005911 0 0 Z M3.62109375 16.09765625 C3.41613281 17.29003906 3.21117187 18.48242188 3 19.7109375 C2.72798568 21.27736478 2.4558436 22.84376989 2.18359375 24.41015625 C2.04888672 25.19583984 1.91417969 25.98152344 1.77539062 26.79101562 C1.64326172 27.54833984 1.51113281 28.30566406 1.375 29.0859375 C1.25455322 29.78243408 1.13410645 30.47893066 1.01000977 31.1965332 C0.62109375 33.09765625 0.62109375 33.09765625 -0.37890625 36.09765625 C2.26109375 36.09765625 4.90109375 36.09765625 7.62109375 36.09765625 C6.63109375 29.49765625 5.64109375 22.89765625 4.62109375 16.09765625 C4.29109375 16.09765625 3.96109375 16.09765625 3.62109375 16.09765625 Z " fill="#DB202C" transform="translate(138.37890625,9.90234375)"/>
<path d="M0 0 C3.31237665 1.72440036 4.64907436 3.55301933 6 7 C6.95809976 10.31723987 7.59995809 13.57205466 8 17 C5.51245214 18.24377393 3.77344699 18.13306235 1 18.125 C0.113125 18.12757812 -0.77375 18.13015625 -1.6875 18.1328125 C-4 18 -4 18 -6 17 C-5.67 14.36 -5.34 11.72 -5 9 C-6.66611905 8.957279 -8.33382885 8.95936168 -10 9 C-11.23294699 9.99956219 -11.23294699 9.99956219 -11.01953125 11.99609375 C-10.95121094 12.80175781 -10.88289062 13.60742188 -10.8125 14.4375 C-10.75707031 15.24058594 -10.70164063 16.04367188 -10.64453125 16.87109375 C-10.21472612 19.14429677 -10.21472612 19.14429677 -8.1953125 20.09765625 C-7.47085938 20.39542969 -6.74640625 20.69320313 -6 21 C0.29877666 25.40789142 4.73099766 30.56901733 7 38 C7.42611236 42.80137317 6.7532368 45.95003356 3.9375 49.875 C2.9784375 50.926875 2.9784375 50.926875 2 52 C2 52.99 2 53.98 2 55 C-1.28696233 55.79953138 -2.71023192 56.09658936 -6 55 C-8.50677686 54.73634901 -11.01315704 54.55713668 -13.52734375 54.37890625 C-16.94448576 53.85526837 -19.16405724 53.12233056 -21.265625 50.30078125 C-23.54543488 45.69592716 -24.53647384 42.25744367 -24 37 C-23 36 -23 36 -20.93359375 35.90234375 C-19.69802734 35.91974609 -19.69802734 35.91974609 -18.4375 35.9375 C-17.61121094 35.94652344 -16.78492188 35.95554688 -15.93359375 35.96484375 C-15.29550781 35.97644531 -14.65742188 35.98804688 -14 36 C-13.01 38.64 -12.02 41.28 -11 44 C-9.35 44 -7.7 44 -6 44 C-5.5700662 41.06211904 -5.46033338 38.87545919 -7.0546875 36.2890625 C-9.80204877 33.00707958 -12.8271492 30.27983025 -16.125 27.5625 C-20.63354847 23.67701389 -23.62614173 19.79761293 -24.22265625 13.73828125 C-24.02013897 8.96697409 -22.74224874 4.76088287 -19.40625 1.26953125 C-13.6801163 -1.75156202 -6.20789825 -1.34561897 0 0 Z " fill="#DB202C" transform="translate(185,10)"/>
<path d="M0 0 C1.29349365 0.00523682 2.5869873 0.01047363 3.91967773 0.01586914 C4.9496714 0.01799156 4.9496714 0.01799156 6.00047302 0.02015686 C8.20144949 0.0257706 10.40232557 0.03832532 12.60327148 0.05102539 C14.09220231 0.05603863 15.58113473 0.06060184 17.07006836 0.06469727 C20.72700223 0.07574446 24.38387707 0.09301826 28.04077148 0.11352539 C28.04077148 4.07352539 28.04077148 8.03352539 28.04077148 12.11352539 C24.74077148 12.11352539 21.44077148 12.11352539 18.04077148 12.11352539 C18.37077148 27.29352539 18.70077148 42.47352539 19.04077148 58.11352539 C14.35948722 59.04978224 11.62492593 59.08325037 7.04077148 58.11352539 C5.86357823 55.75913888 5.95171152 54.46585724 6.01904297 51.84741211 C6.03913925 50.96665009 6.05923553 50.08588806 6.0799408 49.17843628 C6.10697586 48.22631256 6.13401093 47.27418884 6.16186523 46.29321289 C6.18547623 45.31941681 6.20908722 44.34562073 6.2334137 43.34231567 C6.310143 40.22424067 6.39412748 37.10640827 6.47827148 33.98852539 C6.53148289 31.87786028 6.58422334 29.76718324 6.63647461 27.65649414 C6.76577061 22.47535362 6.90102782 17.29439407 7.04077148 12.11352539 C6.38077148 12.11352539 5.72077148 12.11352539 5.04077148 12.11352539 C5.04077148 26.96352539 5.04077148 41.81352539 5.04077148 57.11352539 C4.71077148 57.11352539 4.38077148 57.11352539 4.04077148 57.11352539 C4.04077148 42.26352539 4.04077148 27.41352539 4.04077148 12.11352539 C1.73077148 12.11352539 -0.57922852 12.11352539 -2.95922852 12.11352539 C-2.95922852 26.96352539 -2.95922852 41.81352539 -2.95922852 57.11352539 C-3.28922852 57.11352539 -3.61922852 57.11352539 -3.95922852 57.11352539 C-3.98235767 49.82930991 -4.00014653 42.54510229 -4.01104069 35.26085758 C-4.01626826 31.87880726 -4.02336362 28.49678199 -4.03466797 25.11474609 C-4.04757118 21.23022762 -4.05245775 17.34571942 -4.05688477 13.46118164 C-4.06204605 12.24141129 -4.06720734 11.02164093 -4.07252502 9.76490784 C-4.07260056 8.64382126 -4.07267609 7.52273468 -4.07275391 6.36767578 C-4.07497452 5.37506241 -4.07719513 4.38244904 -4.07948303 3.35975647 C-3.89516711 -0.08307593 -3.50876356 0.1346073 0 0 Z M-2.95922852 10.11352539 C-2.95922852 10.44352539 -2.95922852 10.77352539 -2.95922852 11.11352539 C0.34077148 11.11352539 3.64077148 11.11352539 7.04077148 11.11352539 C7.04077148 10.78352539 7.04077148 10.45352539 7.04077148 10.11352539 C3.74077148 10.11352539 0.44077148 10.11352539 -2.95922852 10.11352539 Z " fill="#DB202C" transform="translate(259.959228515625,9.886474609375)"/>
<path d="M0 0 C1.37478516 0.01740234 1.37478516 0.01740234 2.77734375 0.03515625 C3.69644531 0.04417969 4.61554688 0.05320312 5.5625 0.0625 C6.27277344 0.07410156 6.98304688 0.08570313 7.71484375 0.09765625 C8.72435772 3.12619815 8.83588875 5.13770967 8.82836914 8.3034668 C8.82829361 9.36434006 8.82821808 10.42521332 8.82814026 11.51823425 C8.82297897 12.6620607 8.81781769 13.80588715 8.8125 14.984375 C8.81108505 16.15652054 8.8096701 17.32866608 8.80821228 18.53633118 C8.80260763 22.28596532 8.79005431 26.0355401 8.77734375 29.78515625 C8.77232935 32.32486893 8.76776634 34.86458255 8.76367188 37.40429688 C8.75263669 43.63543698 8.735894 49.86654237 8.71484375 56.09765625 C4.40388099 57.10280301 1.08649343 56.86912384 -3.28515625 56.09765625 C-3.31042188 48.28312873 -3.3279873 40.46861167 -3.34008789 32.65405273 C-3.34513008 29.99324144 -3.35196361 27.33243293 -3.3605957 24.67163086 C-3.37266634 20.85660109 -3.37838554 17.04160781 -3.3828125 13.2265625 C-3.38797379 12.02866592 -3.39313507 10.83076935 -3.39845276 9.59657288 C-3.39852829 8.49550705 -3.39860382 7.39444122 -3.39868164 6.26000977 C-3.40090225 5.28516129 -3.40312286 4.31031281 -3.40541077 3.30592346 C-3.2401845 0.27182738 -3.03999047 0.12991412 0 0 Z " fill="#DB202C" transform="translate(246.28515625,9.90234375)"/>
<path d="M0 0 C0.33 0 0.66 0 1 0 C1 17.16 1 34.32 1 52 C0.67 52 0.34 52 0 52 C-0.1684192 45.88038732 -0.32888916 39.76063541 -0.48217773 33.640625 C-0.53536104 31.56114168 -0.59066987 29.48171154 -0.64819336 27.40234375 C-0.73076923 24.40376245 -0.80555637 21.40506949 -0.87890625 18.40625 C-0.90594131 17.48509399 -0.93297638 16.56393799 -0.96083069 15.61486816 C-1.08242562 10.28845581 -0.7985039 5.269588 0 0 Z " fill="#DB202C" transform="translate(241,14)"/>
<path d="M0 0 C0.33 0 0.66 0 1 0 C1.1680882 6.01382224 1.3285968 12.02778194 1.48217773 18.04199219 C1.53544747 20.08664349 1.59076434 22.13124255 1.64819336 24.17578125 C1.73052508 27.11967711 1.8054198 30.06368417 1.87890625 33.0078125 C1.90594131 33.9174173 1.93297638 34.82702209 1.96083069 35.76419067 C2.06718921 40.31801979 1.95815373 44.51571151 1 49 C0.67 49 0.34 49 0 49 C0 32.83 0 16.66 0 0 Z " fill="#DB202C" transform="translate(124,11)"/>
<path d="M0 0 C0.33 0 0.66 0 1 0 C1 13.2 1 26.4 1 40 C0.67 40 0.34 40 0 40 C0 26.8 0 13.6 0 0 Z " fill="#DB202C" transform="translate(280,28)"/>
<path d="M0 0 C0.33 0 0.66 0 1 0 C1.66 2.97 2.32 5.94 3 9 C4.06541016 9.18175781 4.06541016 9.18175781 5.15234375 9.3671875 C6.53099609 9.61855469 6.53099609 9.61855469 7.9375 9.875 C8.85402344 10.03742188 9.77054687 10.19984375 10.71484375 10.3671875 C11.84599609 10.68042969 11.84599609 10.68042969 13 11 C13.33 11.66 13.66 12.32 14 13 C5.10995106 12.66068515 5.10995106 12.66068515 1.375 10.4375 C-0.65510933 6.83866982 -0.27305404 4.09581063 0 0 Z " fill="#DB202C" transform="translate(305,63)"/>
<path d="M0 0 C2.14965431 3.22448147 2.22152284 3.79930965 1.9765625 7.44921875 C1.925 8.29677734 1.8734375 9.14433594 1.8203125 10.01757812 C1.75585938 10.89865234 1.69140625 11.77972656 1.625 12.6875 C1.56828125 13.58017578 1.5115625 14.47285156 1.453125 15.39257812 C1.31173702 17.59587413 1.16034022 19.79801539 1 22 C0.67 22 0.34 22 0 22 C0 14.74 0 7.48 0 0 Z " fill="#DB202C" transform="translate(103,43)"/>
<path d="M0 0 C0.33 0 0.66 0 1 0 C1.66 4.29 2.32 8.58 3 13 C2.01 12.67 1.02 12.34 0 12 C0 8.04 0 4.08 0 0 Z " fill="#DB202C" transform="translate(21,60)"/>
<path d="M0 0 C0.99 0.495 0.99 0.495 2 1 C1.67 5.29 1.34 9.58 1 14 C0.67 14 0.34 14 0 14 C0 9.38 0 4.76 0 0 Z " fill="#DB202C" transform="translate(52,52)"/>
<path d="M0 0 C0.33 0 0.66 0 1 0 C1.33 3.63 1.66 7.26 2 11 C0.68 10.67 -0.64 10.34 -2 10 C-1.34 6.7 -0.68 3.4 0 0 Z M0 6 C1 10 1 10 1 10 Z " fill="#DB202C" transform="translate(142,34)"/>
<path d="M0 0 C0.99773437 0.02320313 1.99546875 0.04640625 3.0234375 0.0703125 C4.52777344 0.09738281 4.52777344 0.09738281 6.0625 0.125 C6.83335937 0.14820313 7.60421875 0.17140625 8.3984375 0.1953125 C8.3984375 0.5253125 8.3984375 0.8553125 8.3984375 1.1953125 C5.0984375 1.5253125 1.7984375 1.8553125 -1.6015625 2.1953125 C-2.2615625 3.8453125 -2.9215625 5.4953125 -3.6015625 7.1953125 C-3.9315625 7.1953125 -4.2615625 7.1953125 -4.6015625 7.1953125 C-4.7265625 4.8203125 -4.7265625 4.8203125 -4.6015625 2.1953125 C-2.6015625 0.1953125 -2.6015625 0.1953125 0 0 Z " fill="#DB202C" transform="translate(163.6015625,43.8046875)"/>
<path d="M0 0 C0.33 0 0.66 0 1 0 C1 4.95 1 9.9 1 15 C-1.09566561 10.80866878 -1.15337517 9.68835147 -0.625 5.25 C-0.51414062 4.26515625 -0.40328125 3.2803125 -0.2890625 2.265625 C-0.19367188 1.51796875 -0.09828125 0.7703125 0 0 Z " fill="#DB202C" transform="translate(110,11)"/>
<path d="M0 0 C0.33 0 0.66 0 1 0 C1.91657981 5.38490641 2.11138159 10.54230189 2 16 C1.67 16 1.34 16 1 16 C0.67 10.72 0.34 5.44 0 0 Z " fill="#DB202C" transform="translate(225,16)"/>
<path d="M0 0 C0.33 0 0.66 0 1 0 C1 3.63 1 7.26 1 11 C0.34 11 -0.32 11 -1 11 C-0.67 7.37 -0.34 3.74 0 0 Z " fill="#DB202C" transform="translate(38,59)"/>
<path d="M0 0 C1.14926266 0.95421808 2.29430541 1.91352045 3.4375 2.875 C4.07558594 3.40867188 4.71367187 3.94234375 5.37109375 4.4921875 C7 6 7 6 8 8 C4.63820226 6.55922954 2.40843732 4.75249979 0 2 C0 1.34 0 0.68 0 0 Z " fill="#DB202C" transform="translate(163,33)"/>
<path d="M0 0 C0.33 0 0.66 0 1 0 C1.25 7.625 1.25 7.625 -1 11 C-1.14285714 3.57142857 -1.14285714 3.57142857 0 0 Z " fill="#DB202C" transform="translate(208,18)"/>
<path d="M0 0 C3.96 0.33 7.92 0.66 12 1 C12 1.33 12 1.66 12 2 C7.83861737 2.08159574 4.0527516 1.98248524 0 1 C0 0.67 0 0.34 0 0 Z " fill="#DB202C" transform="translate(243,67)"/>
<path d="M0 0 C1.21236328 0.02707031 1.21236328 0.02707031 2.44921875 0.0546875 C3.37154297 0.08949219 3.37154297 0.08949219 4.3125 0.125 C4.3125 0.455 4.3125 0.785 4.3125 1.125 C-1.6275 1.62 -1.6275 1.62 -7.6875 2.125 C-4.48369983 -0.01086678 -3.66810033 -0.10632175 0 0 Z " fill="#DB202C" transform="translate(84.6875,66.875)"/>
<path d="M0 0 C4.29 0 8.58 0 13 0 C13 0.33 13 0.66 13 1 C8.71 1 4.42 1 0 1 C0 0.67 0 0.34 0 0 Z " fill="#DB202C" transform="translate(219,66)"/>
<path d="M0 0 C4.29 0 8.58 0 13 0 C13 0.33 13 0.66 13 1 C8.71 1 4.42 1 0 1 C0 0.67 0 0.34 0 0 Z " fill="#DB202C" transform="translate(199,65)"/>
<path d="M0 0 C2.10814567 4.21629134 2.17700355 6.39790775 2 11 C1.67 11 1.34 11 1 11 C0.67 7.37 0.34 3.74 0 0 Z " fill="#DB202C" transform="translate(29,27)"/>
<path d="M0 0 C1.8871875 0.061875 1.8871875 0.061875 3.8125 0.125 C3.8125 0.455 3.8125 0.785 3.8125 1.125 C0.1825 1.455 -3.4475 1.785 -7.1875 2.125 C-4.09861478 0.06574319 -3.47814073 -0.1140374 0 0 Z " fill="#DB202C" transform="translate(31.1875,71.875)"/>
<path d="M0 0 C0 0.33 0 0.66 0 1 C-3.63 1.33 -7.26 1.66 -11 2 C-11 1.67 -11 1.34 -11 1 C-7.26562152 0.12132271 -3.83225427 -0.08912219 0 0 Z " fill="#DB202C" transform="translate(51,70)"/>
<path d="M0 0 C0 0.99 0 1.98 0 3 C-2.97 3 -5.94 3 -9 3 C-9 2.67 -9 2.34 -9 2 C-6.94921875 1.77213542 -4.8984375 1.54427083 -2.84765625 1.31640625 C-0.98859771 1.18113386 -0.98859771 1.18113386 0 0 Z " fill="#DB202C" transform="translate(65,67)"/>
<path d="M0 0 C2.64 0 5.28 0 8 0 C8 0.33 8 0.66 8 1 C5.69 1 3.38 1 1 1 C0.67 2.32 0.34 3.64 0 5 C0 3.35 0 1.7 0 0 Z " fill="#DB202C" transform="translate(138,56)"/>
<path d="M0 0 C3.63 0 7.26 0 11 0 C11 0.33 11 0.66 11 1 C7.37 1 3.74 1 0 1 C0 0.67 0 0.34 0 0 Z " fill="#DB202C" transform="translate(149,65)"/>
<path d="M0 0 C3.63 0 7.26 0 11 0 C11 0.33 11 0.66 11 1 C7.37 1 3.74 1 0 1 C0 0.67 0 0.34 0 0 Z " fill="#DB202C" transform="translate(125,65)"/>
<path d="M0 0 C2.62187494 1.04874998 3.79371361 1.64931313 5.25 4.125 C5.4975 4.74375 5.745 5.3625 6 6 C3.97945196 4.35830472 1.97956942 2.69088222 0 1 C0 0.67 0 0.34 0 0 Z " fill="#DB202C" transform="translate(171,41)"/>
<path d="M0 0 C2.62187494 1.04874998 3.79371361 1.64931313 5.25 4.125 C5.4975 4.74375 5.745 5.3625 6 6 C3.97945196 4.35830472 1.97956942 2.69088222 0 1 C0 0.67 0 0.34 0 0 Z " fill="#DB202C" transform="translate(183,33)"/>
<path d="M0 0 C2.64 0 5.28 0 8 0 C8 0.33 8 0.66 8 1 C3.545 1.495 3.545 1.495 -1 2 C-0.67 1.34 -0.34 0.68 0 0 Z " fill="#DB202C" transform="translate(11,74)"/>
<path d="M0 0 C1.4606285 2.64738916 2 3.89448334 2 7 C1.34 7 0.68 7 0 7 C0 4.69 0 2.38 0 0 Z " fill="#DB202C" transform="translate(216,57)"/>
<path d="M0 0 C2.31 0.66 4.62 1.32 7 2 C5.1875 2.6875 5.1875 2.6875 3 3 C1.25 1.5625 1.25 1.5625 0 0 Z " fill="#DB202C" transform="translate(165,63)"/>
<path d="M0 0 C-1 1 -1 1 -4.5625 1.0625 C-5.696875 1.041875 -6.83125 1.02125 -8 1 C-8 0.67 -8 0.34 -8 0 C-2.25 -1.125 -2.25 -1.125 0 0 Z " fill="#DB202C" transform="translate(125,65)"/>
<path d="M0 0 C0.99 0 1.98 0 3 0 C3 2.31 3 4.62 3 7 C2.67 7 2.34 7 2 7 C2 5.02 2 3.04 2 1 C1.34 0.67 0.68 0.34 0 0 Z " fill="#DB202C" transform="translate(72,58)"/>
<path d="M0 0 C0.33 0 0.66 0 1 0 C1 1.98 1 3.96 1 6 C0.67 5.01 0.34 4.02 0 3 C-0.66 2.67 -1.32 2.34 -2 2 C-1.34 1.34 -0.68 0.68 0 0 Z " fill="#DB202C" transform="translate(290,18)"/>
<path d="M0 0 C2.64 0 5.28 0 8 0 C8 0.33 8 0.66 8 1 C5.36 1 2.72 1 0 1 C0 0.67 0 0.34 0 0 Z " fill="#DB202C" transform="translate(285,71)"/>
<path d="M0 0 C2.64 0 5.28 0 8 0 C8 0.33 8 0.66 8 1 C5.36 1 2.72 1 0 1 C0 0.67 0 0.34 0 0 Z " fill="#DB202C" transform="translate(174,66)"/>
<path d="M0 0 C2.31 0 4.62 0 7 0 C7 0.33 7 0.66 7 1 C4.69 1.33 2.38 1.66 0 2 C0 1.34 0 0.68 0 0 Z " fill="#DB202C" transform="translate(298,62)"/>
<path d="M0 0 C0.33 0 0.66 0 1 0 C1 2.64 1 5.28 1 8 C0.67 8 0.34 8 0 8 C0 5.36 0 2.72 0 0 Z " fill="#DB202C" transform="translate(236,54)"/>
<path d="M0 0 C0.33 0 0.66 0 1 0 C1 2.64 1 5.28 1 8 C0.67 8 0.34 8 0 8 C0 5.36 0 2.72 0 0 Z " fill="#DB202C" transform="translate(237,46)"/>
<path d="M0 0 C3.875 1.75 3.875 1.75 5 4 C1.125 2.25 1.125 2.25 0 0 Z " fill="#DB202C" transform="translate(178,29)"/>
<path d="M0 0 C0.99 0.33 1.98 0.66 3 1 C2.01 1.495 2.01 1.495 1 2 C0.01 3.485 0.01 3.485 -1 5 C-0.67 3.35 -0.34 1.7 0 0 Z " fill="#DB202C" transform="translate(175,19)"/>
<path d="M0 0 C0.33 0 0.66 0 1 0 C1 2.64 1 5.28 1 8 C0.67 8 0.34 8 0 8 C0 5.36 0 2.72 0 0 Z " fill="#DB202C" transform="translate(227,15)"/>
<path d="M0 0 C0.99 0.33 1.98 0.66 3 1 C2.67 2.32 2.34 3.64 2 5 C1.34 3.35 0.68 1.7 0 0 Z " fill="#DB202C" transform="translate(189,12)"/>
<path d="M0 0 C2.31 0 4.62 0 7 0 C7 0.33 7 0.66 7 1 C4.69 1 2.38 1 0 1 C0 0.67 0 0.34 0 0 Z " fill="#DB202C" transform="translate(266,69)"/>
<path d="M0 0 C0.33 0.66 0.66 1.32 1 2 C1.99 1.67 2.98 1.34 4 1 C4 1.66 4 2.32 4 3 C2.68 3 1.36 3 0 3 C0 2.01 0 1.02 0 0 Z " fill="#DB202C" transform="translate(174,51)"/>
<path d="M0 0 C0.33 0 0.66 0 1 0 C1 2.31 1 4.62 1 7 C0.67 7 0.34 7 0 7 C0 4.69 0 2.38 0 0 Z " fill="#DB202C" transform="translate(196,51)"/>
<path d="M0 0 C0.33 0 0.66 0 1 0 C1 2.31 1 4.62 1 7 C0.67 7 0.34 7 0 7 C0 4.69 0 2.38 0 0 Z " fill="#DB202C" transform="translate(318,50)"/>
<path d="M0 0 C0.33 0 0.66 0 1 0 C1 2.31 1 4.62 1 7 C0.67 7 0.34 7 0 7 C0 4.69 0 2.38 0 0 Z " fill="#DB202C" transform="translate(195,43)"/>
<path d="M0 0 C0.33 0 0.66 0 1 0 C1 2.31 1 4.62 1 7 C0.67 7 0.34 7 0 7 C0 4.69 0 2.38 0 0 Z " fill="#DB202C" transform="translate(238,38)"/>
<path d="M0 0 C0.33 0 0.66 0 1 0 C1 2.31 1 4.62 1 7 C0.67 7 0.34 7 0 7 C0 4.69 0 2.38 0 0 Z " fill="#DB202C" transform="translate(239,30)"/>
<path d="M0 0 C0.33 0 0.66 0 1 0 C1 2.31 1 4.62 1 7 C0.67 7 0.34 7 0 7 C0 4.69 0 2.38 0 0 Z " fill="#DB202C" transform="translate(193,28)"/>
<path d="M0 0 C0.99 0.99 1.98 1.98 3 3 C2.67 3.66 2.34 4.32 2 5 C1.34 4.34 0.68 3.68 0 3 C0 2.01 0 1.02 0 0 Z " fill="#DB202C" transform="translate(175,24)"/>
<path d="M0 0 C0.33 0 0.66 0 1 0 C1 2.31 1 4.62 1 7 C0.67 7 0.34 7 0 7 C0 4.69 0 2.38 0 0 Z " fill="#DB202C" transform="translate(206,14)"/>
<path d="M0 0 C1.98 0 3.96 0 6 0 C6 0.33 6 0.66 6 1 C4.02 1 2.04 1 0 1 C0 0.67 0 0.34 0 0 Z " fill="#DB202C" transform="translate(273,70)"/>
<path d="M0 0 C1.98 0 3.96 0 6 0 C6 0.33 6 0.66 6 1 C4.02 1 2.04 1 0 1 C0 0.67 0 0.34 0 0 Z " fill="#DB202C" transform="translate(111,66)"/>
<path d="M0 0 C1.98 0 3.96 0 6 0 C6 0.33 6 0.66 6 1 C4.02 1 2.04 1 0 1 C0 0.67 0 0.34 0 0 Z " fill="#DB202C" transform="translate(96,66)"/>
<path d="M0 0 C0.33 0 0.66 0 1 0 C1 1.98 1 3.96 1 6 C0.67 6 0.34 6 0 6 C0 4.02 0 2.04 0 0 Z " fill="#DB202C" transform="translate(297,64)"/>
<path d="M0 0 C0.33 0 0.66 0 1 0 C1 1.98 1 3.96 1 6 C0.67 6 0.34 6 0 6 C0 4.02 0 2.04 0 0 Z " fill="#DB202C" transform="translate(66,61)"/>
<path d="M0 0 C0.33 0 0.66 0 1 0 C1 1.98 1 3.96 1 6 C0.67 6 0.34 6 0 6 C0 4.02 0 2.04 0 0 Z " fill="#DB202C" transform="translate(283,60)"/>
<path d="M0 0 C0.66 1.32 1.32 2.64 2 4 C1.34 4 0.68 4 0 4 C0 2.68 0 1.36 0 0 Z " fill="#DB202C" transform="translate(161,57)"/>
<path d="M0 0 C0.33 0 0.66 0 1 0 C1 1.98 1 3.96 1 6 C0.67 6 0.34 6 0 6 C0 4.02 0 2.04 0 0 Z " fill="#DB202C" transform="translate(284,54)"/>
<path d="M0 0 C0.33 0 0.66 0 1 0 C1 1.98 1 3.96 1 6 C0.67 6 0.34 6 0 6 C0 4.02 0 2.04 0 0 Z " fill="#DB202C" transform="translate(88,51)"/>
<path d="M0 0 C0.33 0 0.66 0 1 0 C1 1.98 1 3.96 1 6 C0.67 6 0.34 6 0 6 C0 4.02 0 2.04 0 0 Z " fill="#DB202C" transform="translate(285,48)"/>
<path d="M0 0 C0.33 0 0.66 0 1 0 C1 1.98 1 3.96 1 6 C0.67 6 0.34 6 0 6 C0 4.02 0 2.04 0 0 Z " fill="#DB202C" transform="translate(54,47)"/>
<path d="M0 0 C0.33 0 0.66 0 1 0 C1 1.98 1 3.96 1 6 C0.67 6 0.34 6 0 6 C0 4.02 0 2.04 0 0 Z " fill="#DB202C" transform="translate(317,44)"/>
<path d="M0 0 C0.33 0 0.66 0 1 0 C1 1.98 1 3.96 1 6 C0.67 6 0.34 6 0 6 C0 4.02 0 2.04 0 0 Z " fill="#DB202C" transform="translate(286,42)"/>
<path d="M0 0 C0.33 0 0.66 0 1 0 C1 1.98 1 3.96 1 6 C0.67 6 0.34 6 0 6 C0 4.02 0 2.04 0 0 Z " fill="#DB202C" transform="translate(55,41)"/>
<path d="M0 0 C0.33 0 0.66 0 1 0 C1 1.98 1 3.96 1 6 C0.67 6 0.34 6 0 6 C0 4.02 0 2.04 0 0 Z " fill="#DB202C" transform="translate(86,40)"/>
<path d="M0 0 C0.33 0 0.66 0 1 0 C1 1.98 1 3.96 1 6 C0.67 6 0.34 6 0 6 C0 4.02 0 2.04 0 0 Z " fill="#DB202C" transform="translate(316,37)"/>
<path d="M0 0 C0.33 0 0.66 0 1 0 C1 1.98 1 3.96 1 6 C0.67 6 0.34 6 0 6 C0 4.02 0 2.04 0 0 Z " fill="#DB202C" transform="translate(287,36)"/>
<path d="M0 0 C0.33 0 0.66 0 1 0 C1 1.98 1 3.96 1 6 C0.67 6 0.34 6 0 6 C0 4.02 0 2.04 0 0 Z " fill="#DB202C" transform="translate(194,36)"/>
<path d="M0 0 C0.33 0 0.66 0 1 0 C1 1.98 1 3.96 1 6 C0.67 6 0.34 6 0 6 C0 4.02 0 2.04 0 0 Z " fill="#DB202C" transform="translate(70,35)"/>
<path d="M0 0 C0.33 0 0.66 0 1 0 C1 1.98 1 3.96 1 6 C0.67 6 0.34 6 0 6 C0 4.02 0 2.04 0 0 Z " fill="#DB202C" transform="translate(315,31)"/>
<path d="M0 0 C0.33 0 0.66 0 1 0 C1 1.98 1 3.96 1 6 C0.67 6 0.34 6 0 6 C0 4.02 0 2.04 0 0 Z " fill="#DB202C" transform="translate(314,25)"/>
<path d="M0 0 C0.33 0 0.66 0 1 0 C1 1.98 1 3.96 1 6 C0.67 6 0.34 6 0 6 C0 4.02 0 2.04 0 0 Z " fill="#DB202C" transform="translate(31,25)"/>
<path d="M0 0 C0.33 0 0.66 0 1 0 C1 1.98 1 3.96 1 6 C0.67 6 0.34 6 0 6 C0 4.02 0 2.04 0 0 Z " fill="#DB202C" transform="translate(28,21)"/>
<path d="M0 0 C0.33 0 0.66 0 1 0 C1 1.98 1 3.96 1 6 C0.67 6 0.34 6 0 6 C0 4.02 0 2.04 0 0 Z " fill="#DB202C" transform="translate(159,20)"/>
<path d="M0 0 C0.33 0 0.66 0 1 0 C1 1.98 1 3.96 1 6 C0.67 6 0.34 6 0 6 C0 4.02 0 2.04 0 0 Z " fill="#DB202C" transform="translate(313,19)"/>
<path d="M0 0 C0.33 0 0.66 0 1 0 C1 1.98 1 3.96 1 6 C0.67 6 0.34 6 0 6 C0 4.02 0 2.04 0 0 Z " fill="#DB202C" transform="translate(32,18)"/>
<path d="M0 0 C0.33 0 0.66 0 1 0 C1 1.98 1 3.96 1 6 C0.67 6 0.34 6 0 6 C0 4.02 0 2.04 0 0 Z " fill="#DB202C" transform="translate(27,15)"/>
<path d="M0 0 C0.33 0 0.66 0 1 0 C1 1.98 1 3.96 1 6 C0.67 6 0.34 6 0 6 C0 4.02 0 2.04 0 0 Z " fill="#DB202C" transform="translate(81,12)"/>
<path d="M0 0 C0.33 0 0.66 0 1 0 C1 1.98 1 3.96 1 6 C0.67 6 0.34 6 0 6 C0 4.02 0 2.04 0 0 Z " fill="#DB202C" transform="translate(33,12)"/>
<path d="M0 0 C0.33 0 0.66 0 1 0 C1 1.98 1 3.96 1 6 C0.67 6 0.34 6 0 6 C0 4.02 0 2.04 0 0 Z " fill="#DB202C" transform="translate(209,11)"/>
<path d="M0 0 C1.65 0 3.3 0 5 0 C5 0.33 5 0.66 5 1 C3.35 1 1.7 1 0 1 C0 0.67 0 0.34 0 0 Z " fill="#DB202C" transform="translate(91,67)"/>
<path d="M0 0 C0.33 0 0.66 0 1 0 C1 1.65 1 3.3 1 5 C0.67 5 0.34 5 0 5 C0 3.35 0 1.7 0 0 Z " fill="#DB202C" transform="translate(197,59)"/>
<path d="M0 0 C0.33 0 0.66 0 1 0 C1 1.65 1 3.3 1 5 C0.67 5 0.34 5 0 5 C0 3.35 0 1.7 0 0 Z " fill="#DB202C" transform="translate(146,58)"/>
<path d="M0 0 C0.33 0 0.66 0 1 0 C1 1.65 1 3.3 1 5 C0.67 5 0.34 5 0 5 C0 3.35 0 1.7 0 0 Z " fill="#DB202C" transform="translate(89,58)"/>
<path d="M0 0 C1.32 0.33 2.64 0.66 4 1 C2.68 1.33 1.36 1.66 0 2 C0 1.34 0 0.68 0 0 Z " fill="#DB202C" transform="translate(67,59)"/>
<path d="M0 0 C0.33 0 0.66 0 1 0 C1 1.65 1 3.3 1 5 C0.67 5 0.34 5 0 5 C0 3.35 0 1.7 0 0 Z " fill="#DB202C" transform="translate(193,48)"/>
<path d="M0 0 C0.33 0 0.66 0 1 0 C1 1.65 1 3.3 1 5 C0.67 5 0.34 5 0 5 C0 3.35 0 1.7 0 0 Z " fill="#DB202C" transform="translate(87,46)"/>
<path d="M0 0 C0.33 0 0.66 0 1 0 C1 1.65 1 3.3 1 5 C0.67 5 0.34 5 0 5 C0 3.35 0 1.7 0 0 Z " fill="#DB202C" transform="translate(126,43)"/>
<path d="M0 0 C0.33 0 0.66 0 1 0 C1 1.65 1 3.3 1 5 C0.67 5 0.34 5 0 5 C0 3.35 0 1.7 0 0 Z " fill="#DB202C" transform="translate(127,38)"/>
<path d="M0 0 C0.33 0 0.66 0 1 0 C1 1.65 1 3.3 1 5 C0.67 5 0.34 5 0 5 C0 3.35 0 1.7 0 0 Z " fill="#DB202C" transform="translate(56,36)"/>
<path d="M0 0 C0.33 0 0.66 0 1 0 C1 1.65 1 3.3 1 5 C0.67 5 0.34 5 0 5 C0 3.35 0 1.7 0 0 Z " fill="#DB202C" transform="translate(157,35)"/>
<path d="M0 0 C0.33 0 0.66 0 1 0 C1 1.65 1 3.3 1 5 C0.67 5 0.34 5 0 5 C0 3.35 0 1.7 0 0 Z " fill="#DB202C" transform="translate(85,35)"/>
<path d="M0 0 C0.33 0 0.66 0 1 0 C1 1.65 1 3.3 1 5 C0.67 5 0.34 5 0 5 C0 3.35 0 1.7 0 0 Z " fill="#DB202C" transform="translate(288,31)"/>
<path d="M0 0 C0.33 0 0.66 0 1 0 C1 1.65 1 3.3 1 5 C0.67 5 0.34 5 0 5 C0 3.35 0 1.7 0 0 Z " fill="#DB202C" transform="translate(156,30)"/>
<path d="M0 0 C0.33 0 0.66 0 1 0 C1 1.65 1 3.3 1 5 C0.67 5 0.34 5 0 5 C0 3.35 0 1.7 0 0 Z " fill="#DB202C" transform="translate(57,30)"/>
<path d="M0 0 C0.33 0 0.66 0 1 0 C1 1.65 1 3.3 1 5 C0.67 5 0.34 5 0 5 C0 3.35 0 1.7 0 0 Z " fill="#DB202C" transform="translate(84,29)"/>
<path d="M0 0 C0.33 0 0.66 0 1 0 C1 1.65 1 3.3 1 5 C0.67 5 0.34 5 0 5 C0 3.35 0 1.7 0 0 Z " fill="#DB202C" transform="translate(129,27)"/>
<path d="M0 0 C0.33 0 0.66 0 1 0 C1 1.65 1 3.3 1 5 C0.67 5 0.34 5 0 5 C0 3.35 0 1.7 0 0 Z " fill="#DB202C" transform="translate(289,25)"/>
<path d="M0 0 C0.33 0 0.66 0 1 0 C1 1.65 1 3.3 1 5 C0.67 5 0.34 5 0 5 C0 3.35 0 1.7 0 0 Z " fill="#DB202C" transform="translate(155,24)"/>
<path d="M0 0 C0.33 0 0.66 0 1 0 C1 1.65 1 3.3 1 5 C0.67 5 0.34 5 0 5 C0 3.35 0 1.7 0 0 Z " fill="#DB202C" transform="translate(83,24)"/>
<path d="M0 0 C0.33 0 0.66 0 1 0 C1 1.65 1 3.3 1 5 C0.67 5 0.34 5 0 5 C0 3.35 0 1.7 0 0 Z " fill="#DB202C" transform="translate(58,24)"/>
<path d="M0 0 C0.33 0 0.66 0 1 0 C1 1.65 1 3.3 1 5 C0.67 5 0.34 5 0 5 C0 3.35 0 1.7 0 0 Z " fill="#DB202C" transform="translate(130,22)"/>
<path d="M0 0 C0.33 0 0.66 0 1 0 C1 1.65 1 3.3 1 5 C0.67 5 0.34 5 0 5 C0 3.35 0 1.7 0 0 Z " fill="#DB202C" transform="translate(178,20)"/>
<path d="M0 0 C0.33 0 0.66 0 1 0 C1 1.65 1 3.3 1 5 C0.67 5 0.34 5 0 5 C0 3.35 0 1.7 0 0 Z " fill="#DB202C" transform="translate(154,19)"/>
<path d="M0 0 C0.33 0 0.66 0 1 0 C1 1.65 1 3.3 1 5 C0.67 5 0.34 5 0 5 C0 3.35 0 1.7 0 0 Z " fill="#DB202C" transform="translate(59,19)"/>
<path d="M0 0 C0.33 0 0.66 0 1 0 C1 1.65 1 3.3 1 5 C0.67 5 0.34 5 0 5 C0 3.35 0 1.7 0 0 Z " fill="#DB202C" transform="translate(82,18)"/>
<path d="M0 0 C0.33 0 0.66 0 1 0 C1 1.65 1 3.3 1 5 C0.67 5 0.34 5 0 5 C0 3.35 0 1.7 0 0 Z " fill="#DB202C" transform="translate(131,16)"/>
<path d="M0 0 C0.33 0 0.66 0 1 0 C1 1.65 1 3.3 1 5 C0.67 5 0.34 5 0 5 C0 3.35 0 1.7 0 0 Z " fill="#DB202C" transform="translate(153,14)"/>
<path d="M0 0 C0.33 0 0.66 0 1 0 C1 1.65 1 3.3 1 5 C0.67 5 0.34 5 0 5 C0 3.35 0 1.7 0 0 Z " fill="#DB202C" transform="translate(312,13)"/>
<path d="M0 0 C0.33 0 0.66 0 1 0 C1 1.65 1 3.3 1 5 C0.67 5 0.34 5 0 5 C0 3.35 0 1.7 0 0 Z " fill="#DB202C" transform="translate(291,13)"/>
<path d="M0 0 C0.33 0 0.66 0 1 0 C1 1.65 1 3.3 1 5 C0.67 5 0.34 5 0 5 C0 3.35 0 1.7 0 0 Z " fill="#DB202C" transform="translate(60,13)"/>
<path d="M0 0 C0.33 0 0.66 0 1 0 C1 1.65 1 3.3 1 5 C0.67 5 0.34 5 0 5 C0 3.35 0 1.7 0 0 Z " fill="#DB202C" transform="translate(132,11)"/>
<path d="M0 0 C0 3 0 3 0 3 Z " fill="#DB202C" transform="translate(190,59)"/>
<path d="M0 0 C1 4 1 4 1 4 Z " fill="#DB202C" transform="translate(105,49)"/>
<path d="M0 0 C1 4 1 4 1 4 Z " fill="#DB202C" transform="translate(158,41)"/>
<path d="M0 0 C1 4 1 4 1 4 Z " fill="#DB202C" transform="translate(128,33)"/>
<path d="M0 0 C0 3 0 3 0 3 Z " fill="#DB202C" transform="translate(162,13)"/>
<path d="M0 0 C1 4 1 4 1 4 Z " fill="#DB202C" transform="translate(107,12)"/>
<path d="M0 0 C1 4 1 4 1 4 Z " fill="#DB202C" transform="translate(224,11)"/>
<path d="M0 0 C1 4 1 4 1 4 Z " fill="#DB202C" transform="translate(26,11)"/>
<path d="M0 0 C0.66 0 1.32 0 2 0 C1.67 0.99 1.34 1.98 1 3 C0.67 2.01 0.34 1.02 0 0 Z " fill="#DB202C" transform="translate(204,10)"/>
<path d="M0 0 C0.33 0.66 0.66 1.32 1 2 C0.34 1.67 -0.32 1.34 -1 1 C-0.67 0.67 -0.34 0.34 0 0 Z " fill="#DB202C" transform="translate(20,72)"/>
<path d="M0 0 C0.33 0.66 0.66 1.32 1 2 C0.34 1.67 -0.32 1.34 -1 1 C-0.67 0.67 -0.34 0.34 0 0 Z " fill="#DB202C" transform="translate(296,70)"/>
<path d="M0 0 C0.66 0.66 1.32 1.32 2 2 C1.34 2 0.68 2 0 2 C0 1.34 0 0.68 0 0 Z " fill="#DB202C" transform="translate(283,69)"/>
<path d="M0 0 C0.33 0.66 0.66 1.32 1 2 C0.34 1.67 -0.32 1.34 -1 1 C-0.67 0.67 -0.34 0.34 0 0 Z " fill="#DB202C" transform="translate(36,70)"/>
<path d="M0 0 C3 1 3 1 3 1 Z " fill="#DB202C" transform="translate(51,69)"/>
<path d="" fill="#DB202C" transform="translate(0,0)"/>
<path d="M0 0 C0.33 0.66 0.66 1.32 1 2 C0.34 1.67 -0.32 1.34 -1 1 C-0.67 0.67 -0.34 0.34 0 0 Z " fill="#DB202C" transform="translate(234,65)"/>
<path d="M0 0 C0.33 0.66 0.66 1.32 1 2 C0.34 1.67 -0.32 1.34 -1 1 C-0.67 0.67 -0.34 0.34 0 0 Z " fill="#DB202C" transform="translate(215,64)"/>
<path d="M0 0 C0.66 0.66 1.32 1.32 2 2 C1.34 2 0.68 2 0 2 C0 1.34 0 0.68 0 0 Z " fill="#DB202C" transform="translate(147,63)"/>
<path d="" fill="#DB202C" transform="translate(0,0)"/>
<path d="" fill="#DB202C" transform="translate(0,0)"/>
<path d="" fill="#DB202C" transform="translate(0,0)"/>
<path d="" fill="#DB202C" transform="translate(0,0)"/>
<path d="" fill="#DB202C" transform="translate(0,0)"/>
<path d="" fill="#DB202C" transform="translate(0,0)"/>
<path d="M0 0 C0.66 0 1.32 0 2 0 C1.67 0.66 1.34 1.32 1 2 C0.67 1.34 0.34 0.68 0 0 Z " fill="#DB202C" transform="translate(172,45)"/>
<path d="" fill="#DB202C" transform="translate(0,0)"/>
<path d="" fill="#DB202C" transform="translate(0,0)"/>
<path d="M0 0 C0.66 0 1.32 0 2 0 C1.67 0.66 1.34 1.32 1 2 C0.67 1.34 0.34 0.68 0 0 Z " fill="#DB202C" transform="translate(310,10)"/>
<path d="M0 0 C0.99 0.495 0.99 0.495 2 1 C1.01 1.495 1.01 1.495 0 2 C0 1.34 0 0.68 0 0 Z " fill="#DB202C" transform="translate(292,10)"/>
<path d="M0 0 C2 1 2 1 2 1 Z " fill="#DB202C" transform="translate(293,72)"/>
<path d="M0 0 C2 1 2 1 2 1 Z " fill="#DB202C" transform="translate(54,70)"/>
<path d="M0 0 C2 1 2 1 2 1 Z " fill="#DB202C" transform="translate(212,66)"/>
<path d="M0 0 C2 1 2 1 2 1 Z " fill="#DB202C" transform="translate(89,66)"/>
<path d="" fill="#DB202C" transform="translate(0,0)"/>
<path d="M0 0 C2 1 2 1 2 1 Z " fill="#DB202C" transform="translate(160,64)"/>
<path d="" fill="#DB202C" transform="translate(0,0)"/>
<path d="" fill="#DB202C" transform="translate(0,0)"/>
<path d="" fill="#DB202C" transform="translate(0,0)"/>
<path d="" fill="#DB202C" transform="translate(0,0)"/>
<path d="" fill="#DB202C" transform="translate(0,0)"/>
<path d="" fill="#DB202C" transform="translate(0,0)"/>
<path d="" fill="#DB202C" transform="translate(0,0)"/>
<path d="" fill="#DB202C" transform="translate(0,0)"/>
<path d="" fill="#DB202C" transform="translate(0,0)"/>
<path d="" fill="#DB202C" transform="translate(0,0)"/>
<path d="" fill="#DB202C" transform="translate(0,0)"/>
<path d="" fill="#DB202C" transform="translate(0,0)"/>
<path d="" fill="#DB202C" transform="translate(0,0)"/>
<path d="" fill="#DB202C" transform="translate(0,0)"/>
<path d="" fill="#DB202C" transform="translate(0,0)"/>
<path d="" fill="#DB202C" transform="translate(0,0)"/>
<path d="M0 0 C2 1 2 1 2 1 Z " fill="#DB202C" transform="translate(241,10)"/>
<path d="M0 0 C2 1 2 1 2 1 Z " fill="#DB202C" transform="translate(186,10)"/>
<path d="M0 0 C2 1 2 1 2 1 Z " fill="#DB202C" transform="translate(165,10)"/>
<path d="" fill="#DB202C" transform="translate(0,0)"/>
<path d="" fill="#DB202C" transform="translate(0,0)"/>
<path d="" fill="#DB202C" transform="translate(0,0)"/>
<path d="" fill="#DB202C" transform="translate(0,0)"/>
<path d="" fill="#DB202C" transform="translate(0,0)"/>
<path d="" fill="#DB202C" transform="translate(0,0)"/>
<path d="" fill="#DB202C" transform="translate(0,0)"/>
<path d="" fill="#DB202C" transform="translate(0,0)"/>
<path d="" fill="#DB202C" transform="translate(0,0)"/>
<path d="" fill="#DB202C" transform="translate(0,0)"/>
<path d="" fill="#DB202C" transform="translate(0,0)"/>
<path d="" fill="#DB202C" transform="translate(0,0)"/>
<path d="" fill="#DB202C" transform="translate(0,0)"/>
<path d="" fill="#DB202C" transform="translate(0,0)"/>
<path d="" fill="#DB202C" transform="translate(0,0)"/>
<path d="" fill="#DB202C" transform="translate(0,0)"/>
<path d="" fill="#DB202C" transform="translate(0,0)"/>
<path d="" fill="#DB202C" transform="translate(0,0)"/>
<path d="" fill="#DB202C" transform="translate(0,0)"/>
<path d="" fill="#DB202C" transform="translate(0,0)"/>
<path d="" fill="#DB202C" transform="translate(0,0)"/>
<path d="" fill="#DB202C" transform="translate(0,0)"/>
<path d="" fill="#DB202C" transform="translate(0,0)"/>
<path d="" fill="#DB202C" transform="translate(0,0)"/>
<path d="" fill="#DB202C" transform="translate(0,0)"/>
<path d="" fill="#DB202C" transform="translate(0,0)"/>
<path d="" fill="#DB202C" transform="translate(0,0)"/>
<path d="" fill="#DB202C" transform="translate(0,0)"/>
<path d="" fill="#DB202C" transform="translate(0,0)"/>
<path d="" fill="#DB202C" transform="translate(0,0)"/>
<path d="" fill="#DB202C" transform="translate(0,0)"/>
</svg>
